<?xml version="1.0" standalone="no"?>
<!DOCTYPE svg PUBLIC "-//W3C//DTD SVG 20010904//EN"
 "http://www.w3.org/TR/2001/REC-SVG-20010904/DTD/svg10.dtd">
<svg version="1.0" xmlns="http://www.w3.org/2000/svg"
 width="584.000000pt" height="767.000000pt" viewBox="0 0 584.000000 767.000000"
 preserveAspectRatio="xMidYMid meet">

<g transform="translate(0.000000,767.000000) scale(0.100000,-0.100000)"
fill="#000000" stroke="none">
<path d="M2818 7378 l-95 -273 -114 -6 c-63 -4 -194 -7 -291 -8 -98 0 -178 -4
-178 -8 1 -5 102 -84 226 -178 124 -93 227 -172 230 -176 2 -4 -1 -20 -7 -37
-9 -26 -16 -30 -62 -36 -29 -4 -96 -16 -151 -27 -87 -18 -100 -18 -115 -5 -31
28 -67 29 -123 3 -29 -13 -63 -28 -75 -31 -12 -4 -34 -21 -49 -39 -14 -17 -42
-37 -60 -43 -30 -10 -36 -9 -44 6 -29 55 -116 69 -178 28 -20 -14 -56 -35 -80
-47 -23 -12 -49 -35 -57 -51 -11 -21 -23 -30 -41 -30 -21 0 -24 -4 -20 -20 3
-11 9 -29 12 -40 5 -20 5 -20 -30 1 -42 25 -79 22 -171 -10 -61 -22 -101 -51
-110 -81 -3 -10 -25 -23 -51 -30 l-45 -13 26 -27 27 -28 -89 -46 c-50 -26
-108 -62 -131 -81 -48 -42 -99 -138 -108 -206 -5 -39 -16 -58 -56 -104 -48
-53 -51 -55 -69 -39 -10 9 -41 19 -69 22 -46 4 -52 2 -82 -31 -51 -54 -98
-118 -98 -132 0 -7 -16 -23 -36 -36 l-36 -22 26 -21 c14 -11 39 -41 54 -66
l28 -44 -31 -53 c-20 -35 -37 -52 -50 -53 -35 0 -85 -39 -103 -78 -10 -20 -26
-50 -37 -67 -11 -16 -25 -45 -32 -64 -11 -33 -10 -38 14 -63 26 -27 26 -27 9
-70 -10 -24 -28 -59 -41 -79 -79 -121 -115 -232 -115 -352 0 -44 -7 -120 -16
-171 -8 -50 -17 -105 -20 -122 -3 -19 -13 -36 -28 -44 -39 -21 -59 -68 -52
-125 3 -28 6 -65 5 -84 0 -18 5 -48 11 -66 7 -22 7 -40 0 -59 -9 -25 -7 -28
19 -37 l28 -10 8 -127 c4 -70 9 -181 11 -247 3 -101 6 -123 24 -147 11 -15 20
-33 20 -41 0 -7 4 -17 8 -22 14 -16 41 -136 41 -186 1 -70 46 -235 85 -314 19
-38 61 -99 94 -135 32 -36 76 -94 97 -130 21 -36 71 -114 112 -174 40 -59 75
-123 79 -142 6 -34 53 -84 79 -84 7 0 16 -11 19 -25 4 -14 14 -25 22 -25 25 0
133 -121 134 -148 0 -34 104 -129 150 -138 19 -4 30 -14 35 -31 5 -20 9 -22
20 -13 10 8 21 4 49 -21 20 -17 36 -35 36 -40 0 -5 -15 -15 -33 -22 -43 -18
-94 -78 -102 -120 -4 -21 3 -69 19 -132 69 -277 71 -342 15 -531 -47 -159 -53
-246 -24 -307 22 -46 66 -71 111 -64 l33 6 3 -47 c3 -40 6 -47 28 -52 22 -5
25 -12 28 -55 1 -28 9 -57 19 -67 19 -21 74 -38 125 -38 30 0 38 4 45 26 8 25
10 26 26 10 16 -16 19 -15 60 9 25 14 62 26 83 28 41 2 45 -4 30 -49 -3 -11 0
-28 8 -39 13 -18 17 -18 41 -5 23 12 32 12 70 -2 33 -13 53 -14 78 -7 52 14
69 39 65 95 l-3 49 -49 6 c-66 7 -82 33 -102 156 l-6 42 58 -55 c297 -277 626
-398 1084 -398 442 1 767 117 1057 379 80 72 83 71 62 -24 -16 -74 -39 -99
-97 -103 -45 -3 -47 -4 -50 -37 -6 -59 5 -81 52 -102 41 -18 46 -18 92 -2 43
15 50 15 75 1 26 -15 27 -15 40 9 10 18 10 31 2 54 -7 17 -8 31 -2 35 15 9 70
-6 117 -32 39 -21 46 -22 59 -9 21 22 33 18 33 -10 0 -22 4 -25 39 -25 61 0
99 11 126 36 20 19 25 32 25 74 0 42 3 50 19 50 28 0 44 26 38 63 l-5 32 50 0
c42 0 53 4 74 28 55 65 55 153 -1 337 -57 187 -57 231 6 494 37 150 35 190
-10 246 l-31 38 32 20 32 21 -43 17 -42 17 21 22 c12 13 38 25 59 29 52 8 170
69 204 104 l28 29 -40 7 c-67 10 -50 32 69 88 42 19 99 57 129 85 l55 50 -42
7 c-23 3 -42 10 -42 14 0 13 41 46 95 77 56 32 155 128 155 150 0 10 -11 15
-35 15 -19 0 -35 4 -35 9 0 13 42 53 93 88 42 29 137 143 137 164 0 5 -18 6
-40 3 -61 -10 -49 20 41 104 47 44 119 151 119 177 0 4 -18 4 -40 0 l-40 -7
12 29 c7 15 32 50 55 77 43 48 103 159 103 191 0 16 -9 16 -59 -3 -22 -8 -2
57 30 98 37 46 76 134 85 189 l7 43 -31 -16 c-17 -9 -33 -16 -37 -16 -15 0 -1
50 34 120 35 72 71 204 58 216 -3 4 -16 -1 -29 -10 -12 -9 -26 -16 -31 -16
-13 0 -2 67 23 135 22 59 40 205 26 205 -5 0 -20 -9 -34 -21 l-27 -21 -3 25
c-2 13 6 52 17 85 21 60 31 232 14 232 -4 0 -19 -12 -34 -26 l-28 -27 -6 26
c-4 15 -3 61 2 104 9 83 1 209 -15 225 -5 5 -16 -1 -26 -18 -30 -44 -41 -16
-38 96 2 71 -2 117 -14 161 l-17 62 -27 -33 -27 -34 -13 25 c-7 13 -17 62 -21
110 -8 82 -28 152 -55 193 -12 17 -14 16 -29 -14 l-17 -32 -17 28 c-10 16 -23
56 -29 89 -12 61 -76 205 -91 205 -5 0 -12 -11 -15 -25 -12 -47 -35 -21 -57
65 -18 73 -89 200 -111 200 -4 0 -8 -8 -8 -17 0 -10 -5 -25 -10 -33 -8 -13
-14 -10 -35 15 -13 17 -24 34 -25 39 -1 33 -120 216 -140 216 -5 0 -11 -14
-15 -31 l-7 -31 -29 28 c-16 16 -42 51 -58 79 -16 27 -55 75 -87 105 l-59 55
-5 -32 c-5 -31 -6 -32 -26 -15 -12 9 -35 37 -52 62 -40 60 -138 150 -162 150
-3 0 -4 -16 -2 -37 l5 -36 -38 23 c-21 13 -56 43 -79 68 -39 43 -148 122 -168
122 -5 0 -7 -13 -3 -30 4 -16 4 -30 0 -30 -15 0 -48 24 -90 65 -40 38 -182
121 -191 112 -2 -2 0 -18 5 -35 5 -18 6 -32 2 -32 -4 0 -66 17 -137 39 -71 21
-195 49 -276 61 l-148 24 -6 34 c-4 19 -2 37 3 41 5 3 110 83 233 176 l224
170 -225 6 c-123 4 -256 7 -295 8 l-71 1 -93 268 c-51 147 -96 271 -100 275
-4 4 -50 -115 -102 -265z m198 -85 l78 -223 151 -1 c82 -1 200 -4 262 -8 l112
-6 -208 -159 c-201 -152 -209 -159 -200 -185 27 -82 140 -473 137 -476 -2 -1
-99 65 -217 146 l-214 149 -108 -75 c-60 -41 -159 -110 -221 -152 -61 -42
-109 -70 -105 -61 4 13 81 270 143 480 3 12 -50 58 -203 175 l-207 158 114 6
c63 4 181 7 262 8 l147 1 19 53 c10 28 50 141 88 250 65 186 70 196 81 170 6
-15 46 -128 89 -250z m-760 -696 c21 -18 28 -35 31 -68 1 -24 6 -58 9 -75 4
-20 0 -43 -11 -64 -15 -29 -18 -31 -34 -16 -10 9 -24 16 -32 16 -9 0 -22 14
-30 32 -8 18 -28 41 -46 51 -29 16 -34 17 -61 3 -28 -14 -30 -14 -51 15 l-22
30 30 29 c16 17 39 30 51 30 12 0 33 9 47 20 35 27 85 26 119 -3z m1357 -26
c113 -39 199 -123 212 -205 4 -22 9 -48 11 -58 4 -13 -13 -10 -101 19 -83 28
-110 41 -126 64 -19 27 -99 184 -99 194 0 11 50 4 103 -14z m307 -47 c49 -30
118 -107 141 -157 20 -44 23 -78 13 -138 l-6 -37 -57 25 c-102 46 -132 90
-162 241 -10 51 -19 98 -19 103 0 10 40 -6 90 -37z m-2049 -2 c26 -23 33 -38
35 -75 1 -25 7 -54 13 -66 15 -27 14 -74 -1 -93 -19 -24 -88 -13 -88 14 0 11
-15 35 -34 54 -38 38 -77 44 -114 18 -21 -15 -24 -14 -52 16 l-30 32 34 34
c19 19 42 34 51 34 10 0 33 14 52 30 45 40 91 40 134 2z m123 -28 c9 -3 25
-21 36 -39 21 -34 21 -34 41 -14 38 38 89 17 104 -43 5 -19 14 -28 33 -30 17
-2 33 -14 45 -35 l19 -33 -56 0 c-78 0 -118 -19 -156 -76 -48 -68 -66 -84
-100 -84 l-30 0 39 50 c22 28 43 66 47 84 5 29 -9 99 -42 209 -6 19 -3 20 20
11z m2232 -126 c82 -76 116 -174 96 -280 l-7 -37 -70 43 c-100 61 -113 90
-138 313 l-5 42 40 -20 c22 -11 60 -39 84 -61z m-2618 14 c9 -9 24 -29 33 -42
l17 -25 25 28 c14 15 36 27 47 27 32 0 80 -53 80 -87 0 -26 3 -28 37 -28 31 0
41 -6 61 -35 l23 -35 -73 -6 c-118 -9 -152 -31 -235 -152 -24 -34 -39 -47 -57
-47 l-25 0 32 62 c39 75 41 140 8 265 -11 45 -21 84 -21 87 0 13 31 5 48 -12z
m-99 -49 c26 -25 30 -37 35 -104 l6 -77 -35 -4 c-33 -4 -35 -2 -35 24 0 42
-40 78 -87 78 -21 0 -48 -6 -58 -14 -18 -12 -24 -11 -50 11 l-29 26 28 23 c15
13 38 24 51 24 14 0 39 9 57 20 46 28 82 25 117 -7z m2299 -50 c359 -132 702
-358 973 -641 268 -280 472 -617 593 -982 219 -659 169 -1345 -144 -1967 -204
-404 -498 -738 -875 -992 -135 -91 -351 -205 -493 -261 l-83 -33 30 -18 c68
-41 77 -103 19 -138 -35 -22 -58 -18 -58 9 0 26 22 37 34 17 9 -14 12 -13 22
11 22 54 -25 100 -89 88 -108 -20 -176 -134 -147 -247 13 -50 24 -68 60 -92
53 -37 160 -7 160 44 0 11 5 30 12 42 10 20 10 21 -5 8 -9 -7 -24 -11 -32 -7
-22 8 -19 53 5 66 17 9 25 6 45 -14 72 -72 -20 -203 -136 -193 -92 8 -149 82
-149 193 1 78 24 126 95 194 70 68 85 96 85 158 0 60 -33 99 -72 86 -12 -4
-30 -7 -38 -5 -11 2 -10 -1 4 -11 23 -18 17 -53 -9 -53 -29 0 -32 48 -6 74 23
23 77 28 102 8 36 -28 52 -68 52 -128 0 -32 2 -59 4 -59 20 0 215 85 321 140
748 389 1254 1109 1368 1950 23 168 23 472 0 640 -101 749 -517 1410 -1146
1825 -128 84 -333 190 -475 245 -61 23 -124 53 -140 66 -17 13 -27 24 -22 24
4 0 64 -21 135 -47z m659 -39 c58 -58 103 -153 103 -218 0 -39 -15 -119 -26
-134 -1 -2 -29 17 -61 43 -85 65 -96 93 -101 248 l-4 129 22 -12 c13 -7 43
-32 67 -56z m-709 5 c34 -11 62 -24 62 -29 0 -4 -21 -30 -47 -58 -77 -81 -193
-103 -327 -62 l-66 21 82 57 c83 57 161 91 209 92 14 0 53 -9 87 -21z m-814
-5 c11 -30 6 -72 -13 -95 l-18 -23 -17 32 c-19 36 -20 56 -6 83 13 23 46 25
54 3z m-1654 -29 l23 -24 25 19 c30 24 70 26 100 4 16 -11 22 -25 22 -55 l0
-40 48 6 c26 3 54 1 62 -5 13 -9 11 -13 -10 -30 -14 -11 -56 -32 -93 -47 -92
-36 -109 -58 -162 -210 -2 -7 -14 -13 -25 -13 -26 0 -26 25 0 108 36 114 26
160 -52 238 l-50 52 28 10 c45 16 59 14 84 -13z m863 -9 c7 -22 5 -34 -10 -54
-19 -26 -19 -28 -1 -46 39 -41 11 -116 -43 -116 -24 0 -29 -4 -25 -17 2 -10 7
-28 11 -40 3 -12 1 -32 -5 -44 -11 -20 -15 -16 -67 61 -64 96 -92 112 -225
131 -49 7 -88 15 -88 19 0 4 11 13 24 20 19 10 53 11 139 6 136 -9 163 -1 222
67 22 25 44 44 49 43 6 -1 14 -15 19 -30z m81 -58 c9 -12 16 -31 16 -41 0 -10
7 -29 16 -42 20 -31 12 -85 -16 -110 -11 -10 -39 -20 -63 -21 -23 -2 -51 -4
-62 -6 -14 -2 -21 3 -23 20 -2 15 2 22 13 22 9 0 27 11 40 25 28 27 33 80 12
109 -11 15 -11 24 2 51 18 36 37 34 65 -7z m1781 -8 l25 -10 -30 -59 c-33 -67
-91 -114 -168 -137 -46 -14 -202 -20 -202 -7 0 8 97 120 125 146 34 30 96 59
144 67 66 11 77 11 106 0z m-2810 -21 c4 -12 8 -47 8 -79 1 -44 -3 -63 -17
-78 -17 -20 -17 -21 3 -32 27 -14 27 -40 -1 -93 -12 -23 -21 -48 -20 -54 4
-18 -64 -155 -85 -174 -10 -9 -22 -23 -28 -32 -5 -8 -21 -18 -33 -22 -22 -6
-23 -5 -13 14 10 18 5 26 -48 67 -75 58 -97 107 -87 186 12 91 59 178 119 220
22 15 28 17 18 5 -19 -24 -9 -21 48 15 28 17 54 29 56 26 3 -3 -6 -25 -20 -49
-30 -54 -75 -185 -78 -231 -1 -18 -6 -39 -10 -46 -5 -7 -3 -28 3 -47 6 -19 10
-50 9 -69 -2 -19 0 -38 4 -42 4 -4 6 40 6 97 -2 142 19 217 119 412 2 4 -3 4
-12 1 -9 -3 -13 -10 -10 -15 3 -5 -3 -6 -12 -2 -13 5 -10 10 17 24 44 24 56
23 64 -2z m3506 -44 c45 -48 81 -133 86 -200 4 -48 1 -71 -19 -117 l-24 -57
-56 52 c-81 76 -89 116 -62 335 7 52 7 53 27 35 11 -10 33 -31 48 -48z m-1781
-25 c0 -38 8 -65 36 -115 26 -47 36 -77 36 -110 0 -55 -28 -106 -66 -120 -33
-11 -52 -1 -84 46 -34 48 -27 120 17 191 24 38 35 69 39 110 6 69 22 67 22 -2z
m-1850 35 c0 -2 -10 -9 -22 -15 -22 -11 -22 -10 -4 4 21 17 26 19 26 11z
m1810 -34 c0 -41 -11 -51 -56 -51 -24 0 -53 5 -63 12 -15 9 -24 8 -45 -5 -14
-9 -39 -17 -55 -17 -46 0 -266 -46 -378 -80 -103 -30 -309 -114 -370 -150 -36
-21 -41 -16 -18 14 8 11 15 28 15 38 0 12 19 27 56 46 52 25 56 26 68 9 18
-24 34 -21 48 8 8 19 21 25 57 30 80 10 93 15 125 47 26 26 50 37 142 59 61
15 153 32 205 38 52 6 108 13 124 15 17 1 56 4 88 5 50 1 57 -1 57 -18z m390
-12 c116 -20 296 -64 320 -79 11 -7 11 -11 1 -23 -15 -19 -3 -23 99 -33 41 -4
92 -15 112 -24 l38 -17 -21 -19 -20 -18 34 -12 c20 -7 62 -16 94 -19 32 -4 71
-14 87 -22 l29 -15 -22 -17 -22 -17 27 -13 c15 -6 54 -18 87 -26 61 -14 141
-61 131 -76 -10 -17 9 -9 85 35 118 68 188 81 288 51 79 -23 82 -35 26 -89
-60 -58 -97 -71 -199 -70 -69 0 -90 5 -148 32 -49 23 -73 29 -84 23 -14 -8 -6
-15 38 -35 30 -14 69 -28 85 -32 17 -3 46 -18 65 -34 l35 -28 -28 -7 c-15 -4
-27 -10 -27 -14 0 -9 78 -56 123 -75 35 -14 76 -51 77 -68 0 -5 -10 -8 -22 -8
-21 0 -21 -1 5 -28 15 -15 48 -41 75 -57 27 -16 62 -48 78 -72 16 -24 36 -43
44 -43 8 0 51 7 94 15 94 18 166 9 230 -29 47 -28 86 -62 86 -76 0 -5 -23 -21
-52 -36 -102 -52 -251 -18 -353 80 -27 25 -58 46 -69 46 -18 0 -17 -3 10 -31
16 -17 51 -47 77 -66 26 -19 54 -48 63 -64 14 -28 14 -29 -11 -29 l-26 0 18
-31 c10 -17 36 -48 59 -68 36 -31 74 -87 74 -107 0 -3 -9 -4 -20 -1 -34 9 -20
-25 45 -108 18 -22 35 -52 38 -67 4 -14 10 -34 14 -44 5 -14 2 -16 -20 -12
-15 3 -27 3 -27 1 0 -3 43 -86 82 -156 25 -44 24 -70 -2 -62 -11 3 -20 4 -20
1 0 -9 42 -117 56 -144 8 -15 14 -42 14 -60 0 -28 -3 -32 -19 -27 -19 6 -19 4
-5 -55 8 -34 19 -70 24 -80 11 -21 14 -113 3 -123 -3 -4 -12 -2 -20 5 -30 25
-30 9 4 -164 3 -15 2 -39 -1 -53 -6 -22 -9 -24 -27 -15 -19 11 -20 9 -17 -109
2 -65 0 -123 -4 -127 -5 -4 -17 1 -27 10 -19 17 -19 16 -24 -46 -3 -35 -5 -81
-5 -103 1 -22 -4 -53 -11 -69 -11 -27 -12 -28 -30 -12 -18 17 -19 15 -30 -34
-6 -28 -11 -66 -11 -85 0 -35 -28 -105 -41 -105 -5 0 -12 8 -18 18 -8 15 -11
13 -21 -13 -7 -16 -16 -55 -22 -85 -11 -57 -40 -122 -56 -128 -6 -2 -13 7 -17
19 l-7 22 -14 -24 c-8 -13 -23 -53 -34 -87 -27 -88 -80 -157 -80 -107 0 43
-52 -26 -81 -108 -7 -20 -26 -49 -41 -64 l-27 -26 -9 23 c-8 22 -9 22 -39 -16
-17 -22 -39 -55 -49 -75 -11 -20 -34 -49 -51 -64 -31 -26 -33 -26 -33 -6 0 32
-15 25 -57 -26 -51 -62 -112 -123 -123 -123 -5 0 -10 10 -12 23 -3 20 -11 14
-73 -47 -54 -54 -89 -78 -155 -109 -464 -215 -953 -270 -1439 -161 -232 52
-507 163 -568 229 -18 19 -40 35 -50 35 -11 1 -27 18 -40 46 l-23 45 43 -26
c184 -112 386 -197 590 -250 395 -100 820 -86 1207 42 598 197 1084 652 1324
1239 226 553 204 1205 -59 1739 -304 618 -864 1049 -1533 1179 -73 14 -146 26
-163 26 -17 0 -37 7 -45 15 -18 17 -54 20 -54 4 0 -6 -21 -9 -52 -7 -52 3 -53
4 -56 37 l-3 34 108 -7 c59 -4 160 -16 223 -27z m-1569 -83 c-14 -15 -19 -26
-12 -31 6 -3 11 -21 11 -39 0 -39 -30 -71 -59 -63 -18 4 -20 -1 -23 -42 -2
-25 -7 -45 -13 -44 -5 0 -22 32 -37 70 -34 82 -68 116 -143 139 -30 10 -54 23
-52 28 6 18 65 18 115 2 83 -29 139 -17 192 39 l25 27 9 -31 c8 -26 5 -35 -13
-55z m110 35 c16 -16 29 -36 29 -45 0 -8 11 -32 25 -52 33 -49 32 -86 -3 -125
-21 -23 -38 -33 -63 -34 -19 0 -44 -6 -56 -13 -51 -28 -103 -7 -103 42 0 28 5
35 25 40 37 9 59 49 52 96 -3 27 -1 43 9 51 8 6 14 24 14 40 0 39 32 39 71 0z
m2412 20 c21 -5 41 -11 43 -14 3 -2 -13 -32 -35 -65 -33 -48 -52 -66 -98 -89
-53 -25 -68 -28 -165 -28 -58 0 -110 3 -114 7 -8 8 109 120 159 152 33 22 108
44 147 45 14 0 42 -3 63 -8z m-1468 -30 c3 -11 16 -35 29 -54 21 -31 22 -38
13 -84 -10 -46 -8 -56 15 -102 26 -54 22 -60 -26 -41 -64 24 -85 93 -50 162
16 30 15 80 -1 121 -4 9 -3 17 3 17 6 0 13 -9 17 -19z m325 13 c0 -4 -5 -24
-11 -44 -10 -33 -9 -46 11 -94 19 -44 21 -61 14 -88 -11 -37 -64 -78 -100 -78
l-23 0 24 36 c27 39 33 101 16 147 -8 20 -6 29 9 42 11 10 24 33 30 51 10 29
30 48 30 28z m1820 -101 c47 -53 82 -135 87 -208 5 -53 1 -71 -22 -123 -15
-34 -31 -62 -34 -62 -4 0 -28 25 -54 55 -63 72 -75 130 -51 237 9 40 19 88 21
106 3 17 9 32 13 32 4 0 23 -17 40 -37z m-432 -42 l22 -12 -40 -53 c-77 -102
-226 -133 -373 -77 l-28 11 66 51 c108 82 155 101 250 96 44 -2 90 -9 103 -16z
m-3060 -38 c-10 -2 -28 -2 -40 0 -13 2 -5 4 17 4 22 1 32 -1 23 -4z m99 -26
c50 -26 127 -102 121 -119 -4 -8 -28 -29 -55 -47 -35 -24 -57 -31 -80 -29 -29
4 -33 1 -33 -19 0 -29 -41 -47 -88 -39 -24 4 -38 0 -53 -15 -29 -29 -75 -24
-180 18 -29 12 -35 19 -31 35 3 13 7 16 12 8 5 -9 18 -6 46 8 41 21 85 62 66
62 -6 0 -17 -8 -24 -19 -7 -10 -27 -25 -45 -34 -27 -14 -32 -14 -37 -2 -3 8
-1 17 5 20 5 4 7 10 4 15 -3 5 -1 11 5 15 6 4 8 11 5 16 -4 5 -2 9 4 9 6 0 8
6 5 14 -3 7 5 20 18 29 38 27 83 67 76 67 -4 0 -24 -14 -45 -32 -34 -29 -35
-29 -13 -4 35 39 74 58 107 50 16 -3 23 -2 16 3 -22 16 162 6 194 -10z m255
-114 c-362 -220 -689 -612 -855 -1024 -72 -180 -131 -426 -144 -601 -3 -50
-10 -84 -14 -77 -4 7 -5 50 -2 96 5 67 3 91 -11 122 -16 33 -16 46 -6 97 22
112 51 205 76 241 22 33 29 57 26 93 -1 8 2 24 7 35 5 11 22 50 37 88 21 49
34 67 47 67 10 0 21 8 24 19 2 10 15 24 28 31 25 14 55 65 55 97 1 10 7 29 15
43 8 14 14 38 15 53 0 37 37 85 83 109 21 10 46 33 55 50 9 17 29 46 45 63 15
18 34 48 42 67 17 41 209 228 234 228 25 0 128 76 136 100 5 15 15 20 43 20
20 0 44 5 52 10 8 5 28 10 44 10 27 0 24 -4 -32 -37z m3373 -47 c37 -73 40
-84 40 -161 0 -80 -1 -85 -39 -139 -21 -31 -40 -56 -42 -56 -2 0 -22 28 -45
61 -38 56 -41 67 -41 125 0 46 9 88 33 158 19 53 39 95 44 93 6 -2 28 -38 50
-81z m-4435 59 c16 -8 32 -24 35 -35 4 -12 20 -34 36 -51 26 -26 47 -74 38
-84 -2 -2 -16 -6 -32 -10 -21 -6 -27 -4 -27 9 0 9 -11 28 -25 41 -32 33 -92
34 -126 2 -23 -21 -27 -21 -54 -7 -17 8 -32 17 -35 18 -3 2 6 12 19 23 13 11
31 34 40 52 27 53 78 70 131 42z m2358 -30 c36 -15 42 -21 42 -47 0 -25 -3
-29 -17 -23 -91 39 -210 45 -305 15 -34 -11 -64 -20 -65 -20 -11 0 0 50 12 60
48 40 249 49 333 15z m-71 -109 c-5 -54 -43 -142 -71 -165 -12 -10 -19 -6 -41
27 -30 45 -55 121 -55 164 l0 28 86 0 87 0 -6 -54z m-2273 -8 c8 -13 18 -35
21 -49 l6 -26 37 18 c40 21 51 23 70 10 11 -6 8 -20 -14 -64 -26 -52 -55 -77
-89 -77 -21 0 -27 -16 -42 -114 -7 -50 -20 -112 -29 -138 -13 -42 -18 -47 -34
-38 -16 8 -19 25 -22 118 l-3 109 -40 47 c-22 26 -50 61 -62 79 -12 18 -31 44
-43 59 l-21 28 33 20 c40 24 40 24 69 1 23 -18 23 -18 50 10 35 37 91 41 113
7z m399 -17 c20 -10 52 -22 70 -25 69 -13 103 -88 73 -159 -8 -21 -22 -40 -31
-43 -9 -4 -23 -24 -32 -45 -16 -42 -59 -79 -90 -79 -24 1 -68 69 -54 83 20 20
13 82 -14 111 -13 14 -29 26 -35 26 -5 0 -10 10 -10 23 0 12 -7 33 -16 45 -15
22 -15 25 3 44 37 41 81 47 136 19z m3682 -22 c30 -11 62 -27 70 -36 16 -15
14 -17 -87 -92 -26 -19 -155 -26 -214 -12 -27 7 -71 25 -98 40 l-49 29 49 22
c162 74 233 85 329 49z m-2671 -46 c-130 -170 -202 -485 -160 -703 9 -47 29
-113 46 -146 27 -56 30 -71 30 -160 l0 -99 -32 40 c-48 60 -92 98 -96 86 -5
-15 35 -135 65 -193 13 -27 20 -48 15 -48 -9 0 -146 92 -174 118 -17 14 -18
13 -18 -5 0 -22 17 -116 26 -148 6 -20 6 -20 -17 1 -39 34 -90 67 -95 61 -8
-8 43 -104 93 -176 24 -35 42 -65 40 -67 -2 -2 -32 1 -66 7 -35 5 -65 8 -67 6
-2 -1 21 -35 52 -75 30 -40 53 -72 50 -72 -2 0 -28 11 -57 24 -30 13 -69 27
-88 31 l-34 7 22 -30 c12 -17 47 -54 79 -82 l57 -51 -88 3 c-48 2 -87 0 -87
-3 0 -4 21 -30 46 -58 26 -29 44 -54 41 -57 -3 -3 -22 -1 -44 5 -21 6 -56 11
-78 11 l-40 -1 35 -30 c19 -16 68 -46 107 -67 75 -38 89 -52 51 -52 -36 0
-148 -22 -148 -29 0 -3 25 -22 55 -41 30 -19 55 -38 55 -42 0 -5 -18 -8 -40
-8 -51 0 -140 -19 -140 -30 0 -10 121 -50 150 -50 39 0 28 -20 -31 -56 l-61
-37 -52 16 c-62 20 -110 52 -217 142 l-81 70 93 6 c97 6 218 26 232 39 4 4
-11 19 -33 35 -54 37 -159 149 -208 222 -39 58 -86 143 -78 143 2 0 28 -15 59
-33 65 -39 171 -76 242 -84 l50 -6 -86 89 c-152 158 -189 234 -213 437 l-6 48
74 -67 c73 -66 317 -246 325 -239 2 2 -12 23 -31 47 -146 181 -215 344 -224
533 -5 93 -4 99 11 80 82 -103 130 -155 185 -200 69 -56 168 -120 175 -113 2
2 -2 26 -11 53 -26 89 -47 283 -40 385 17 267 119 447 345 613 35 26 65 47 67
47 2 0 -12 -21 -32 -47z m710 -12 c7 -10 -61 -54 -104 -66 l-25 -7 28 21 c15
13 39 43 54 68 26 46 27 46 34 21 4 -15 10 -31 13 -37z m237 -39 c39 -38 31
-40 -30 -9 -56 29 -66 44 -51 82 l12 30 18 -36 c10 -19 33 -50 51 -67z m730
-10 c123 -107 205 -235 244 -377 35 -128 30 -376 -12 -543 -9 -34 -13 -65 -10
-68 9 -9 149 90 215 151 33 30 79 80 103 111 40 53 44 55 49 33 10 -37 -6
-173 -30 -252 -35 -114 -100 -228 -224 -386 -13 -17 123 73 209 138 33 25 88
72 123 105 l62 59 0 -31 c0 -60 -30 -187 -60 -251 -36 -77 -79 -132 -174 -223
-69 -67 -69 -68 -40 -68 71 0 232 59 307 112 l31 22 -38 -69 c-64 -117 -153
-223 -256 -304 -32 -25 -47 -43 -38 -46 41 -14 190 -35 252 -35 l71 -1 -65
-60 c-87 -80 -170 -135 -235 -155 l-54 -17 -62 41 c-63 41 -63 41 -33 47 68
15 163 48 159 56 -6 9 -92 27 -150 31 l-40 3 65 45 65 45 -80 13 c-44 7 -86
15 -93 18 -8 2 16 20 53 39 68 36 154 95 155 106 0 6 -84 -4 -140 -16 l-33 -7
52 61 c28 34 51 63 51 65 0 1 -41 0 -91 -2 l-90 -4 78 77 c43 43 73 79 66 82
-6 2 -45 -9 -87 -25 -42 -17 -73 -25 -69 -18 4 6 26 37 51 69 24 32 42 60 40
62 -2 3 -33 0 -67 -6 -35 -5 -65 -8 -67 -6 -2 2 12 25 31 50 44 58 120 197
107 197 -5 0 -34 -18 -64 -40 l-55 -39 14 61 c8 33 13 72 11 85 l-3 25 -40
-29 c-22 -16 -65 -45 -96 -65 l-56 -36 35 80 c38 90 64 178 52 178 -4 0 -33
-27 -63 -60 l-55 -59 -4 92 c-4 82 -2 96 19 133 112 198 70 597 -88 840 l-49
75 37 -26 c21 -14 68 -51 104 -83z m-2840 47 c6 -12 9 -29 6 -39 -3 -13 4 -22
25 -31 48 -20 64 -75 31 -111 -15 -17 -15 -20 9 -46 28 -30 42 -62 28 -62 -4
0 -46 18 -91 40 -46 22 -92 40 -103 40 -19 -1 -90 -24 -138 -44 -14 -7 -16 -3
-10 21 6 22 22 35 77 63 81 41 104 73 112 154 5 50 8 54 24 45 10 -5 24 -19
30 -30z m4360 -58 c24 -65 27 -177 7 -232 -7 -20 -31 -56 -53 -81 l-41 -46
-33 64 c-31 60 -33 70 -28 131 4 52 14 84 53 159 55 106 57 106 95 5z m-4448
-18 c-10 -20 -28 -43 -40 -51 -21 -13 -23 -13 -23 7 0 24 72 109 78 92 2 -6
-5 -28 -15 -48z m2005 11 c34 -35 34 -35 16 -56 -20 -22 -103 -78 -116 -78 -4
0 -8 27 -8 60 0 53 3 64 26 85 15 14 31 25 37 25 5 0 26 -16 45 -36z m130 19
c15 -9 28 -17 28 -17 1 -1 19 -269 40 -597 l38 -596 -33 -52 c-21 -32 -31 -59
-28 -71 3 -13 0 -20 -10 -20 -8 0 -30 -15 -49 -34 l-34 -34 0 -231 0 -231 -55
0 -54 0 -3 385 c-3 417 -1 404 -57 405 -20 0 -17 5 28 46 72 64 81 87 81 191
0 78 2 90 20 101 12 7 34 34 50 59 30 46 30 48 30 193 0 133 -2 149 -20 165
-10 9 -30 45 -42 78 -19 50 -29 62 -61 77 l-37 17 40 28 c49 34 80 82 80 124
0 35 9 38 48 14z m1949 -102 c34 -16 66 -38 72 -49 9 -18 3 -23 -64 -57 -68
-35 -79 -37 -138 -33 -70 6 -153 39 -213 84 l-36 28 89 27 c124 39 207 39 290
0z m-4438 -102 c9 -16 24 -32 34 -35 9 -3 24 -19 32 -35 15 -29 15 -29 -14
-29 -16 0 -33 -5 -36 -10 -4 -6 -16 -3 -32 10 -14 11 -39 20 -56 20 -33 0 -77
-33 -77 -58 0 -9 -6 -12 -16 -8 -9 3 -27 9 -40 12 -23 6 -23 6 -6 37 9 16 28
51 42 76 18 34 34 49 60 57 45 15 87 0 109 -37z m4951 -103 c23 -110 -6 -210
-79 -280 -22 -22 -42 -38 -44 -35 -2 2 -16 35 -31 72 -24 63 -26 74 -16 125 5
32 24 80 42 107 17 28 43 70 56 94 l25 44 17 -34 c10 -19 23 -61 30 -93z
m-2598 89 c9 -4 20 -19 23 -35 3 -15 22 -54 41 -85 23 -39 34 -70 34 -96 0
-34 -4 -40 -33 -52 -68 -29 -91 -137 -29 -137 15 0 33 5 40 12 6 6 15 8 19 4
13 -12 -43 -100 -77 -121 l-31 -20 4 -91 c6 -108 -3 -130 -83 -193 -54 -43
-70 -49 -70 -28 -1 30 52 843 55 853 3 11 66 5 107 -11z m-2085 -51 c17 -17
24 -33 20 -50 -4 -21 -1 -24 24 -24 18 0 35 -9 48 -26 26 -34 27 -56 1 -79
-13 -11 -18 -25 -14 -37 4 -14 0 -18 -19 -18 -13 0 -44 -7 -67 -15 -23 -8 -46
-12 -51 -9 -13 8 -113 -40 -170 -81 -27 -19 -52 -35 -55 -35 -3 0 -3 15 1 33
9 40 43 77 117 125 59 37 78 69 78 129 0 27 40 113 52 113 5 0 20 -12 35 -26z
m211 -1 c34 -25 45 -67 28 -107 -7 -17 -16 -47 -20 -67 -3 -20 -18 -46 -31
-59 l-25 -24 -29 28 c-28 27 -29 30 -15 52 11 15 14 33 9 53 -7 31 -47 71 -70
71 -7 0 -15 10 -18 23 -2 12 -8 30 -12 39 -6 16 1 17 75 14 62 -3 89 -9 108
-23z m-501 -59 c24 -24 26 -24 44 -8 19 17 50 14 79 -7 12 -8 12 -12 2 -16
-25 -10 -83 -66 -98 -94 -7 -15 -23 -76 -35 -136 -22 -116 -42 -173 -59 -173
-7 0 -8 6 0 19 11 22 -3 200 -19 229 -5 9 -37 44 -70 77 -34 33 -61 63 -61 68
0 9 47 5 88 -8 18 -6 22 -4 22 16 0 30 28 59 57 59 13 0 35 -12 50 -26z m124
-71 c-14 -26 -91 -99 -91 -86 0 5 10 23 22 39 41 52 91 86 69 47z m4970 -153
c22 -125 -17 -234 -106 -302 l-50 -38 -17 58 c-25 80 -22 121 10 183 35 70
135 191 144 176 4 -6 12 -41 19 -77z m-5188 -104 c20 -56 20 -60 4 -88 -16
-28 -16 -29 9 -39 22 -8 25 -14 20 -37 -19 -86 -18 -121 4 -183 21 -58 22 -69
11 -122 -10 -46 -19 -63 -47 -85 -21 -16 -34 -36 -34 -49 0 -28 -35 -32 -43
-4 -2 10 -29 32 -60 50 -44 25 -61 42 -81 83 -14 29 -26 59 -25 67 0 9 7 -1
14 -22 21 -57 52 -95 95 -117 22 -11 42 -20 46 -20 13 0 -5 98 -24 137 -18 34
-20 58 -18 233 1 191 1 193 -12 115 -7 -46 -10 -119 -8 -170 3 -49 5 -103 5
-119 0 -16 9 -47 20 -70 11 -22 23 -58 27 -79 l7 -39 -31 16 c-59 31 -111 121
-114 198 l-1 43 -7 -45 c-5 -32 -7 -13 -7 65 0 77 2 98 7 70 6 -31 7 -26 4 23
-2 46 2 78 18 120 26 71 67 144 78 137 4 -3 13 2 20 10 7 8 16 12 21 9 5 -3 9
-1 9 5 0 5 3 18 6 28 3 10 -8 2 -25 -17 -43 -49 -39 -26 5 27 l36 44 26 -58
c13 -32 34 -85 45 -117z m527 107 c0 -15 -28 -17 -49 -4 -10 7 -11 13 -1 31
11 21 12 21 31 4 10 -9 19 -23 19 -31z m4203 26 c45 -12 141 -87 145 -115 2
-15 -9 -23 -57 -38 -80 -25 -151 -18 -231 25 -66 35 -155 122 -130 126 120 21
194 22 273 2z m-4283 -25 c-6 -15 -13 -59 -17 -99 -5 -65 -8 -74 -31 -84 -23
-11 -23 -13 -8 -30 9 -10 16 -25 16 -35 0 -28 -28 -73 -60 -96 -24 -17 -30
-29 -30 -59 0 -30 -8 -44 -42 -78 -24 -23 -65 -50 -93 -60 -49 -18 -50 -20
-57 -67 -6 -44 -19 -65 -41 -66 -4 0 -4 19 0 43 12 67 8 97 -21 171 -22 56
-27 79 -22 115 14 107 118 253 212 301 79 39 157 70 181 70 20 0 21 -3 13 -26z
m2095 -3 c-18 -36 -35 -48 -35 -25 0 19 27 54 42 54 5 0 2 -13 -7 -29z m2277
-209 c51 -22 132 -98 141 -131 4 -17 -3 -22 -59 -34 -94 -22 -177 2 -259 75
-30 26 -95 108 -95 120 0 2 51 0 113 -3 82 -4 125 -12 159 -27z m468 -93 c0
-132 -52 -237 -143 -286 -63 -35 -59 -38 -73 64 -10 78 26 149 123 240 53 50
80 69 85 60 4 -6 8 -42 8 -78z m-1933 -141 c-4 -87 -12 -140 -26 -182 -12 -33
-19 -61 -17 -63 7 -7 87 37 178 98 48 33 90 59 93 59 10 0 -5 -76 -26 -138
-10 -30 -37 -81 -59 -114 -22 -33 -40 -63 -40 -66 0 -2 46 -2 102 2 l101 7
-28 -38 c-16 -21 -53 -69 -83 -106 -33 -41 -51 -72 -45 -78 5 -5 64 -12 131
-16 l122 -6 -105 -112 -105 -112 115 -18 c63 -9 115 -20 115 -24 -1 -3 -41
-31 -90 -61 -49 -30 -89 -57 -90 -60 0 -3 43 -32 95 -65 52 -33 93 -63 92 -68
-1 -4 -48 -28 -104 -55 -56 -26 -102 -49 -102 -52 0 -3 31 -30 69 -60 38 -30
69 -58 69 -62 1 -10 -94 -43 -166 -58 -35 -7 -63 -16 -63 -19 0 -11 31 -54 62
-87 l29 -31 -45 -13 c-24 -7 -65 -11 -90 -8 -52 4 -52 2 -32 -65 8 -26 11 -47
8 -47 -24 2 -69 56 -83 100 l-16 50 63 0 c95 0 99 4 63 56 -17 25 -39 50 -50
57 -28 17 -23 27 14 28 17 0 65 13 106 28 l74 28 -44 30 c-24 17 -63 37 -87
45 l-43 15 54 40 c37 27 71 43 112 51 33 7 63 16 68 21 13 13 -91 33 -179 34
-41 1 -74 4 -74 7 0 3 14 19 31 35 17 17 37 42 45 58 8 15 19 27 23 27 5 0 24
12 41 26 41 35 27 44 -67 44 l-72 0 3 36 c3 26 15 48 49 82 45 47 73 90 64 98
-3 3 -31 -4 -63 -16 -33 -12 -87 -23 -121 -24 -33 -2 -66 -7 -72 -10 -6 -4
-11 -3 -11 2 0 12 42 55 106 108 27 23 59 60 72 83 l23 41 -35 0 c-21 0 -65
-15 -110 -39 l-75 -39 14 29 c8 15 15 35 15 43 0 9 15 36 34 60 34 44 63 112
53 123 -8 7 -92 -32 -132 -63 l-35 -26 6 31 c8 36 -2 39 -65 16 -22 -8 -41
-12 -41 -9 0 3 15 24 34 47 41 51 73 111 82 155 8 38 -4 41 -52 12 -31 -20
-33 -20 -43 -3 -8 15 6 34 83 113 51 53 110 122 131 153 21 31 40 57 43 57 3
0 2 -55 -1 -122z m-1642 44 c25 -35 82 -101 126 -147 55 -57 77 -87 73 -99 -8
-20 -3 -21 -58 10 -38 21 -46 23 -46 10 0 -35 42 -122 85 -177 26 -33 45 -59
43 -59 -2 0 -21 7 -43 15 -58 21 -65 19 -65 -16 l0 -30 -33 25 c-38 29 -126
70 -134 63 -7 -8 32 -91 60 -129 13 -18 31 -54 40 -80 l16 -47 -41 25 c-66 42
-168 70 -168 47 0 -30 86 -128 139 -159 23 -14 51 -51 51 -68 0 -2 -23 1 -52
7 -39 8 -53 8 -56 -2 -3 -9 -9 -8 -26 3 -25 16 -127 48 -134 42 -7 -7 55 -92
86 -117 15 -13 28 -33 28 -44 0 -11 3 -29 7 -40 6 -19 3 -20 -68 -17 -41 2
-82 -1 -91 -6 -15 -8 -10 -15 34 -47 29 -20 52 -40 52 -45 0 -4 18 -27 40 -52
l39 -45 -47 2 c-55 3 -179 -13 -202 -25 -12 -7 -11 -10 10 -18 14 -5 45 -13
70 -17 30 -5 57 -19 83 -41 20 -19 42 -34 47 -34 25 0 5 -17 -38 -33 -27 -9
-65 -29 -84 -45 l-36 -28 77 -27 c42 -15 88 -27 104 -27 15 0 27 -3 27 -6 0
-3 -23 -31 -50 -62 -59 -66 -56 -70 49 -71 56 -1 62 -3 56 -18 -4 -10 -9 -32
-12 -48 -3 -21 -18 -39 -46 -59 l-40 -30 7 25 c4 13 9 39 13 57 l6 32 -55 0
c-56 0 -118 16 -118 30 0 4 8 14 17 21 9 8 29 32 45 53 l28 39 -87 22 c-49 13
-103 29 -122 37 l-33 13 71 60 c39 32 71 61 71 65 0 3 -49 28 -108 56 l-107
51 98 63 c53 34 97 65 97 69 0 4 -42 34 -92 66 l-93 60 117 19 116 19 -98 111
-99 111 116 8 c64 4 122 11 129 15 8 5 -13 40 -72 115 l-85 108 106 -7 105 -7
-45 68 c-46 71 -69 126 -84 208 -10 58 -11 58 91 -11 97 -64 168 -105 174 -99
3 3 -4 35 -15 72 -16 51 -21 94 -21 178 0 61 2 108 4 106 2 -2 25 -33 51 -67z
m-82 -127 c20 -41 47 -135 39 -135 -15 0 -29 17 -54 60 -26 46 -78 172 -78
187 1 13 78 -79 93 -112z m3152 93 c83 -13 150 -53 196 -114 22 -28 39 -58 39
-66 0 -17 -46 -28 -118 -28 -85 0 -203 82 -256 179 l-28 52 54 -6 c29 -4 80
-11 113 -17z m-1329 -34 c-24 -69 -84 -181 -100 -187 -20 -8 -20 -9 5 73 14
48 33 83 61 115 22 25 42 44 44 42 2 -2 -2 -22 -10 -43z m1864 -237 c-31 -84
-71 -131 -134 -161 -30 -14 -60 -26 -65 -26 -7 0 -11 30 -11 79 0 73 2 82 36
132 20 30 70 81 113 114 l76 61 3 -72 c2 -53 -2 -85 -18 -127z m-2908 -269 l3
-393 90 0 90 0 2 245 c3 236 4 246 24 263 12 9 34 17 49 17 39 0 54 21 34 48
-12 17 -12 26 -4 43 7 11 14 19 16 16 2 -2 18 -217 35 -478 23 -361 28 -481
20 -505 -6 -17 -11 -41 -11 -54 0 -14 -7 -42 -15 -65 -8 -22 -20 -60 -27 -85
-12 -42 -13 -33 -18 135 l-5 180 -70 0 -70 0 -3 -337 -2 -338 -40 0 -40 0 0
329 c0 271 -2 331 -14 340 -9 7 -40 11 -78 9 l-63 -3 -5 -180 c-5 -173 -5
-178 -18 -125 -7 30 -19 68 -28 84 -8 17 -12 36 -10 43 3 8 -1 32 -8 54 -12
35 -10 102 20 557 18 284 34 534 34 555 l0 37 55 0 55 0 2 -392z m-303 354
c65 -48 94 -162 67 -263 -8 -30 -96 -223 -195 -428 -100 -206 -184 -390 -187
-410 -15 -91 46 -178 115 -167 40 6 67 32 144 139 51 71 80 87 126 71 36 -12
66 -75 54 -111 -5 -15 -21 -35 -35 -46 -55 -41 -101 17 -58 75 21 28 21 29 1
19 -11 -6 -37 -43 -57 -82 -41 -77 -78 -112 -139 -128 -132 -34 -248 98 -216
247 5 27 87 209 182 403 218 450 224 469 198 562 -13 50 -42 77 -79 77 -25 0
-29 -4 -27 -22 2 -20 -3 -23 -33 -23 -31 0 -35 3 -38 28 -4 31 18 63 53 78 30
13 95 3 124 -19z m926 13 c60 -25 72 -105 16 -105 -26 0 -51 16 -51 33 0 4 5
5 12 1 7 -4 8 -3 4 4 -13 21 -61 13 -87 -14 -22 -23 -24 -34 -24 -112 l0 -87
86 -180 c48 -99 133 -276 189 -393 75 -155 104 -227 108 -263 14 -145 -97
-262 -219 -229 -52 14 -109 66 -138 127 -26 52 -58 93 -75 93 -5 0 0 -9 12
-20 47 -44 15 -112 -42 -90 -54 20 -63 95 -17 141 55 55 94 37 176 -81 62 -88
69 -95 109 -104 68 -17 126 48 126 141 0 42 -24 97 -184 428 -101 210 -189
399 -195 420 -14 52 -14 143 1 186 33 100 108 140 193 104z m-2725 -52 c18
-23 20 -36 16 -88 -3 -33 -5 -66 -6 -72 0 -7 -9 -13 -19 -13 -15 0 -20 8 -23
37 -4 45 -42 77 -90 75 -23 -1 -37 5 -46 18 -10 17 -8 21 23 36 20 9 38 20 41
25 3 5 23 9 44 9 30 0 43 -6 60 -27z m1091 -5 c21 -17 50 -50 62 -72 13 -23
31 -53 41 -68 18 -27 18 -28 -2 -28 -12 0 -35 20 -59 53 -46 61 -98 147 -88
147 3 0 24 -14 46 -32z m467 7 c35 -24 37 -28 37 -79 0 -63 -9 -61 -47 11 -28
53 -43 93 -33 93 3 0 23 -11 43 -25z m1298 -48 c-14 -29 -35 -63 -45 -77 l-20
-25 10 45 c7 31 7 46 0 48 -17 6 6 41 42 62 42 26 45 12 13 -53z m470 21 c-47
-78 -101 -143 -124 -146 -20 -3 -19 1 19 62 39 63 115 143 126 133 3 -3 -7
-25 -21 -49z m1137 27 c131 -33 186 -67 239 -149 57 -88 54 -96 -34 -96 -62 0
-81 5 -124 30 -77 44 -143 128 -169 219 -6 20 -4 23 9 18 9 -4 45 -14 79 -22z
m-2697 -50 c21 -32 14 -39 -31 -31 -39 8 -40 9 -23 36 17 27 34 25 54 -5z
m912 4 c16 -25 15 -27 -26 -35 -37 -7 -43 8 -15 38 21 23 25 23 41 -3z m-2868
-9 c11 -11 20 -24 20 -29 0 -5 18 -7 40 -4 56 8 84 -17 77 -69 -5 -36 -4 -38
23 -38 15 0 33 -6 39 -14 10 -11 2 -23 -36 -60 -46 -45 -50 -47 -94 -41 -56 6
-74 -10 -117 -103 l-28 -63 -18 33 c-18 34 -18 34 14 111 32 77 32 79 17 120
-10 26 -15 68 -14 109 2 67 2 68 30 68 15 0 36 -9 47 -20z m-305 -7 c73 -13
78 -17 54 -58 -18 -29 -27 -35 -56 -35 -28 0 -44 -8 -75 -40 -37 -37 -40 -43
-34 -79 5 -35 4 -39 -19 -43 -28 -6 -35 8 -41 76 -2 23 -6 62 -10 87 -5 40 -2
50 22 78 30 36 30 36 159 14z m2192 -35 c6 -5 14 -21 18 -35 3 -15 15 -39 26
-54 l19 -28 -37 -3 c-27 -2 -37 -7 -35 -18 5 -30 -48 46 -63 89 -23 68 -21 73
23 65 20 -4 42 -11 49 -16z m1087 -5 c-11 -45 -68 -149 -72 -130 -3 12 -13 17
-39 17 -19 0 -33 3 -31 8 2 4 15 31 29 60 18 40 31 54 54 61 56 17 66 14 59
-16z m-3119 -70 c-1 -43 -6 -103 -10 -135 -7 -55 -6 -58 38 -131 l45 -74 -20
-31 -19 -31 -43 52 c-57 70 -94 93 -163 101 -32 4 -80 14 -106 23 -61 19 -60
42 3 63 46 15 46 15 32 43 -28 59 33 125 104 114 30 -5 33 -3 39 24 7 31 44
58 81 59 19 0 20 -5 19 -77z m2103 71 c18 -5 22 -13 22 -45 0 -21 -4 -41 -10
-44 -11 -7 -50 52 -50 78 0 19 4 20 38 11z m896 -16 c-10 -34 -32 -76 -44 -83
-6 -4 -10 13 -10 44 0 50 6 59 43 60 15 1 17 -4 11 -21z m2391 -160 c-16 -65
-57 -138 -99 -177 -14 -13 -55 -34 -92 -47 l-67 -23 6 69 c10 116 44 163 182
247 l80 49 3 -28 c2 -15 -4 -56 -13 -90z m-3620 86 c56 -37 94 -74 112 -107
l14 -28 -48 6 c-37 5 -55 14 -76 38 -26 29 -67 98 -67 112 0 12 28 3 65 -21z
m1585 13 c0 -17 -53 -98 -77 -119 -18 -15 -103 -34 -103 -23 0 33 64 98 134
137 38 21 46 22 46 5z m-3291 -47 c0 -10 -3 -8 -9 5 -12 27 -12 43 0 25 5 -8
9 -22 9 -30z m1938 -36 c38 -35 38 -35 9 -29 l-28 6 4 -60 c4 -55 3 -59 -14
-47 -41 29 -97 128 -98 173 0 21 1 22 44 7 24 -8 61 -31 83 -50z m1187 39
c-17 -72 -65 -152 -103 -172 -17 -9 -17 -7 -8 33 13 56 4 80 -24 71 -45 -15
14 43 71 69 69 32 72 32 64 -1z m1679 -37 c103 -38 197 -148 197 -231 l0 -32
-62 9 c-74 11 -135 44 -178 95 -37 46 -76 124 -85 175 l-7 38 43 -19 c24 -10
66 -26 92 -35z m-4824 -41 c0 -22 -6 -51 -14 -65 -14 -25 -14 -24 -16 20 -2
55 0 78 8 110 l6 25 7 -25 c5 -14 8 -43 9 -65z m2061 60 c0 -12 -24 -55 -31
-55 -9 0 -29 33 -29 49 0 6 14 11 30 11 17 0 30 -2 30 -5z m913 -15 c-3 -10
-11 -24 -18 -30 -11 -9 -17 -5 -30 19 l-16 31 35 0 c29 0 33 -3 29 -20z
m-2643 -62 c0 -40 3 -104 6 -143 5 -70 5 -70 -10 -32 -8 22 -24 49 -35 61 -30
32 -30 130 1 163 12 13 25 23 30 23 4 0 8 -33 8 -72z m1040 2 c30 -16 65 -39
78 -53 l23 -25 -31 -4 c-26 -4 -41 2 -79 32 -25 21 -57 50 -71 65 l-25 27 25
-7 c14 -4 50 -20 80 -35z m2320 15 c-14 -14 -47 -44 -75 -65 -44 -34 -55 -38
-80 -32 l-30 8 28 28 c27 27 139 85 166 86 10 0 7 -8 -9 -25z m-1686 -21 c14
-5 14 -10 0 -42 -8 -20 -17 -38 -20 -41 -10 -10 -24 24 -24 57 0 32 11 39 44
26z m1011 -31 c-12 -64 -20 -68 -40 -23 -20 45 -13 60 29 60 16 0 17 -5 11
-37z m-1347 -18 c38 -19 75 -42 82 -50 11 -13 7 -15 -24 -15 -33 0 -37 -2 -31
-21 6 -18 4 -19 -12 -11 -10 6 -40 33 -66 61 -76 81 -61 92 51 36z m200 9 c20
-13 22 -20 16 -72 -4 -31 -8 -58 -9 -60 -2 -2 -19 11 -40 29 -34 31 -75 95
-75 120 0 15 77 3 108 -17z m1352 21 c0 -10 -33 -69 -54 -98 -12 -16 -33 -35
-48 -43 l-26 -14 -4 53 c-5 62 5 82 46 95 35 11 86 15 86 7z m179 -17 c-7 -12
-35 -45 -63 -72 -46 -45 -51 -48 -54 -28 -3 18 -10 22 -40 22 l-36 0 42 31
c41 30 123 68 150 69 10 0 10 -5 1 -22z m-1443 -83 c3 -7 -18 -59 -47 -116
l-52 -104 -13 30 c-15 34 -18 103 -5 123 6 10 15 7 39 -13 l31 -26 -6 55 c-7
71 0 91 27 76 12 -6 23 -17 26 -25z m1116 3 c4 -43 -2 -98 -11 -98 -4 0 -17
21 -30 47 l-23 47 22 18 c31 25 38 23 42 -14z m-2806 -3 c12 -8 28 -31 34 -52
7 -21 21 -47 31 -58 23 -26 41 -75 35 -92 -5 -11 -10 -11 -27 -2 -12 6 -33 9
-47 6 -20 -4 -35 3 -60 24 -45 40 -101 40 -133 1 -23 -27 -24 -27 -56 -12 -42
19 -43 49 -2 89 17 17 35 31 40 31 4 0 16 14 24 31 29 55 105 71 161 34z
m4513 -48 c134 -70 211 -169 211 -271 l0 -33 -62 16 c-35 10 -73 23 -84 29
-38 21 -103 103 -123 156 -22 60 -38 150 -25 145 5 -2 42 -21 83 -42z m-2968
16 c5 -5 7 -35 3 -67 l-7 -57 -24 23 c-26 24 -63 88 -63 109 0 13 77 6 91 -8z
m1449 12 c0 -13 -35 -73 -64 -110 l-31 -39 -6 59 c-5 52 -3 62 14 78 17 15 87
25 87 12z m2096 -57 c-16 -97 -91 -210 -165 -247 -20 -10 -58 -22 -85 -25
l-49 -8 8 59 c9 70 22 97 72 145 32 31 188 116 217 117 5 1 6 -18 2 -41z
m-2218 -57 c-6 -88 -21 -97 -52 -30 l-24 54 31 27 c40 36 51 25 45 -51z
m-1869 34 c39 -10 66 -26 95 -54 22 -22 38 -43 35 -46 -6 -6 -150 64 -194 94
-25 18 -27 21 -10 21 11 0 45 -7 74 -15z m310 -11 c46 -21 60 -33 77 -70 l21
-44 -29 0 c-21 0 -44 14 -84 52 -96 91 -91 111 15 62z m1901 16 c0 -5 -27 -37
-60 -70 -46 -46 -67 -60 -90 -60 l-29 0 18 43 c15 33 30 48 72 70 54 28 89 35
89 17z m290 -10 c-28 -22 -190 -104 -195 -98 -2 1 13 22 34 45 28 33 48 45 91
57 30 8 64 15 75 15 18 1 18 -1 -5 -19z m-3795 -80 c-8 -42 -16 -52 -34 -41
-10 6 -11 22 -6 60 7 51 7 52 27 34 15 -14 18 -25 13 -53z m1751 45 c28 -8 61
-26 75 -41 l24 -26 -28 13 c-33 15 -36 13 -45 -42 l-8 -44 -37 50 c-43 60 -62
105 -43 105 7 0 35 -7 62 -15z m1588 -7 c-10 -32 -47 -89 -73 -112 l-21 -19 0
42 c0 47 -15 59 -52 41 -16 -8 -13 -2 11 19 31 27 81 48 124 50 15 1 17 -4 11
-21z m-3100 -39 c14 -11 26 -27 26 -36 0 -12 6 -13 28 -8 43 12 64 8 90 -18
l24 -24 -46 -13 c-59 -16 -129 -78 -150 -132 -10 -23 -20 -79 -23 -125 -3 -46
-9 -83 -12 -83 -23 0 -31 32 -31 121 l0 97 -46 58 c-46 59 -84 124 -84 144 0
17 36 11 65 -12 19 -14 30 -18 32 -11 3 7 13 23 24 37 25 32 66 34 103 5z
m1626 -65 c0 -8 -9 -33 -21 -56 -16 -31 -23 -38 -30 -27 -12 20 -22 96 -15
114 5 14 9 14 36 0 16 -8 30 -22 30 -31z m1360 2 c0 -25 -5 -57 -11 -73 l-11
-28 -25 49 -25 50 26 23 c38 33 46 29 46 -21z m-3335 20 c72 -5 70 -4 53 -23
-9 -10 -19 -28 -22 -40 -5 -16 -15 -23 -33 -23 -15 0 -38 -13 -60 -35 -32 -32
-35 -40 -30 -73 6 -33 4 -39 -23 -54 -29 -16 -30 -16 -40 3 -6 11 -11 38 -10
62 0 23 -2 58 -5 77 -4 25 0 44 15 68 24 39 54 54 95 46 17 -4 44 -7 60 -8z
m3486 -59 c-12 -24 -30 -52 -41 -62 -19 -18 -20 -17 -20 10 0 27 -1 27 -42 21
l-43 -7 35 36 c25 25 49 38 80 43 25 5 47 7 49 6 2 -2 -6 -23 -18 -47z m1419
-19 c95 -60 149 -141 157 -238 3 -32 1 -60 -4 -63 -18 -11 -118 34 -156 71
-59 58 -90 130 -95 226 l-4 81 23 -21 c13 -12 49 -37 79 -56z m-4770 30 c6
-18 15 -77 20 -131 9 -110 13 -117 120 -241 48 -55 60 -76 60 -103 l0 -33 -72
76 c-91 96 -136 122 -219 130 -78 7 -170 43 -167 64 2 8 20 23 41 34 35 17 37
20 23 35 -23 26 -20 55 10 85 18 17 37 26 59 26 28 0 33 4 38 29 4 19 17 36
34 45 38 21 39 20 53 -16z m1718 0 c23 -18 42 -36 42 -40 0 -3 -16 -4 -35 -1
-34 5 -35 5 -35 -26 0 -40 -13 -33 -51 27 -38 60 -37 72 4 72 22 0 47 -11 75
-32z m-1348 -29 c0 -6 -10 -24 -21 -41 -17 -23 -24 -27 -30 -16 -15 23 -10 45
14 56 29 14 37 14 37 1z m1224 1 c45 -17 29 -25 -47 -24 -73 1 -107 9 -107 25
0 12 122 11 154 -1z m1936 1 c0 -19 -46 -39 -64 -29 -10 6 -40 8 -66 6 -37 -4
-47 -2 -43 8 2 7 12 15 21 17 32 9 152 7 152 -2z m-1769 -46 l29 -16 -21 -42
c-12 -23 -23 -44 -24 -45 -8 -9 -35 60 -35 88 0 34 8 37 51 15z m1504 -22 c-4
-21 -13 -49 -20 -62 l-13 -25 -21 42 c-23 46 -21 58 13 72 42 17 49 13 41 -27z
m2045 -46 c-23 -62 -90 -143 -148 -179 -25 -16 -58 -25 -104 -28 -38 -3 -68
-4 -68 -2 0 2 7 29 16 60 20 70 41 100 94 137 50 35 224 95 228 79 2 -6 -7
-36 -18 -67z m-3975 61 c31 -14 31 -21 1 -37 -19 -11 -38 -11 -90 -2 -36 6
-76 15 -88 20 -21 8 -20 9 12 15 31 5 60 9 122 14 9 1 29 -3 43 -10z m331 -29
c20 -19 42 -46 50 -61 14 -28 14 -28 -15 -28 -16 0 -36 -3 -45 -6 -18 -7 -101
67 -123 109 l-15 30 56 -5 c47 -4 62 -10 92 -39z m1784 33 c0 -16 -58 -89 -87
-110 -23 -16 -39 -19 -71 -15 -23 3 -42 8 -42 10 0 26 68 104 100 116 24 9
100 8 100 -1z m369 -12 c9 -5 -12 -14 -57 -24 -85 -19 -100 -19 -131 -2 l-24
13 24 16 c18 13 38 15 98 10 42 -3 82 -9 90 -13z m-3412 -23 c47 -69 76 -147
70 -192 -4 -41 -3 -45 24 -54 36 -12 55 -75 43 -141 -8 -39 -6 -50 14 -80 21
-31 23 -45 20 -112 -3 -69 -6 -80 -36 -118 -31 -37 -33 -45 -28 -88 8 -59 -8
-90 -23 -49 -6 16 -11 31 -11 34 0 3 -7 21 -17 40 -12 27 -13 37 -4 42 9 6 6
23 -14 67 -14 32 -32 65 -39 74 -8 8 -16 31 -19 50 -3 19 -13 64 -22 100 -20
84 -30 279 -17 352 11 69 -1 65 -47 -16 -53 -94 -66 -150 -65 -274 0 -71 -3
-109 -9 -103 -5 5 -7 61 -5 128 3 99 8 128 30 182 29 70 107 190 123 191 6 0
20 -15 32 -33z m-79 -204 c1 -66 8 -156 18 -203 9 -47 18 -101 21 -121 l5 -36
-51 16 c-28 9 -53 23 -57 31 -3 8 -8 65 -11 125 -4 87 -2 124 12 170 16 55 51
135 59 135 2 0 4 -53 4 -117z m4422 7 c60 -59 83 -110 88 -192 6 -101 4 -104
-67 -68 -65 32 -99 69 -132 145 -23 52 -36 156 -25 200 l7 26 42 -33 c23 -18
62 -53 87 -78z m-3267 78 c-13 -6 -23 -15 -23 -19 0 -8 -50 -3 -80 8 -20 8 32
20 85 21 36 1 38 -1 18 -10z m237 8 c0 -13 -23 -66 -29 -66 -4 0 -18 11 -31
26 -21 21 -22 27 -10 34 14 9 70 14 70 6z m1607 -12 c2 -6 -6 -23 -18 -38
l-22 -28 -18 33 c-10 19 -18 38 -19 42 0 12 73 4 77 -9z m258 6 c20 -4 25 -9
15 -13 -25 -10 -80 -14 -80 -6 0 4 -12 12 -27 17 -26 10 -25 10 17 10 25 0 59
-4 75 -8z m-1965 -9 c0 -5 12 -24 26 -41 15 -17 25 -32 23 -34 -2 -1 -18 -8
-35 -15 -36 -14 -66 -3 -125 46 l-33 28 40 12 c48 14 104 16 104 4z m1834 -2
l38 -11 -23 -25 c-13 -14 -41 -34 -63 -45 -33 -17 -42 -18 -70 -7 -17 7 -33
14 -35 15 -2 2 12 21 30 43 37 44 56 49 123 30z m-2233 -25 c64 -29 75 -44 32
-44 -41 0 -107 -20 -97 -30 9 -8 87 -33 137 -45 34 -7 28 -18 -32 -59 -36 -26
-41 -26 -87 -15 -27 7 -74 24 -104 40 -69 35 -189 119 -169 119 33 1 167 29
204 43 53 20 49 21 116 -9z m2694 -2 c44 -12 100 -25 125 -29 l44 -8 -101 -66
c-55 -36 -122 -71 -149 -78 -92 -24 -94 -26 -49 -48 22 -11 67 -29 100 -39 33
-10 64 -21 69 -26 12 -10 -82 -53 -161 -73 -33 -9 -93 -17 -132 -18 -69 -2
-72 -1 -107 34 l-36 36 79 6 c43 4 89 10 103 14 23 6 22 8 -24 28 l-49 21 49
18 c27 10 52 22 57 25 4 4 -14 23 -39 42 l-46 34 49 13 c26 7 68 20 93 29 l45
17 -40 12 c-22 7 -55 13 -72 13 -18 1 -33 5 -33 9 0 12 112 61 130 57 8 -1 51
-12 95 -23z m-1505 -342 l0 -341 78 3 77 3 3 338 2 337 35 0 35 0 2 -312 c3
-285 5 -313 20 -316 12 -2 18 6 22 30 3 18 15 91 27 162 11 70 28 154 38 185
l17 56 6 -55 c4 -30 17 -219 29 -420 l23 -365 -63 -117 c-34 -65 -66 -118 -69
-118 -4 0 -50 97 -102 216 -52 119 -98 217 -101 219 -3 2 -50 -95 -104 -215
-53 -121 -100 -220 -104 -220 -3 0 -34 54 -69 119 l-63 120 26 384 c14 212 25
400 25 419 l1 33 14 -27 c12 -22 39 -151 72 -353 6 -34 13 -50 23 -50 13 0 15
43 18 313 l2 312 40 0 40 0 0 -340z m-1049 279 c16 -8 18 -13 8 -25 -14 -17
-49 -18 -104 -3 -68 17 -73 22 -30 29 64 11 105 11 126 -1z m2369 2 c44 -7 44
-8 19 -18 -46 -20 -115 -26 -140 -13 l-22 13 24 13 c27 15 53 16 119 5z
m-2046 -89 c-3 -5 -74 29 -79 39 -3 4 11 17 32 28 l38 19 5 -41 c3 -23 5 -44
4 -45z m1676 54 c12 -16 -1 -29 -43 -45 -27 -10 -27 -10 -27 34 l0 44 29 -10
c17 -6 35 -16 41 -23z m1899 -33 c-32 -86 -100 -163 -181 -204 -32 -16 -59
-22 -106 -21 -35 0 -66 3 -69 6 -11 11 39 114 70 144 45 42 86 61 180 82 118
26 119 26 106 -7z m-3651 -8 c20 -14 42 -25 49 -25 19 0 16 -24 -6 -44 -14
-13 -28 -15 -62 -10 -58 9 -140 44 -133 56 8 12 83 47 102 48 7 0 30 -11 50
-25z m1866 2 c22 -12 40 -26 40 -32 1 -12 -76 -41 -135 -49 -42 -6 -48 -4 -63
18 -16 25 -16 26 23 46 22 11 42 24 46 30 10 16 47 11 89 -13z m1231 -211 c20
-39 25 -65 25 -122 0 -75 -6 -104 -21 -104 -5 0 -34 16 -64 36 -93 62 -136
185 -114 319 l12 70 68 -74 c38 -41 80 -97 94 -125z m-4756 129 c61 -19 111
-62 111 -96 0 -22 1 -22 33 8 30 30 34 31 62 19 34 -15 56 -38 76 -80 11 -23
25 -32 62 -41 107 -27 143 -83 140 -222 -1 -88 0 -92 24 -108 25 -17 59 -82
48 -93 -3 -4 -21 10 -40 31 -19 20 -38 37 -44 37 -5 0 -27 -10 -48 -22 -30
-18 -53 -23 -108 -23 -60 0 -79 5 -132 34 -95 51 -211 170 -256 261 -36 73
-87 247 -87 298 0 24 2 25 53 19 28 -3 76 -13 106 -22z m221 -40 c0 -9 -6 -12
-15 -9 -8 4 -15 7 -15 8 0 0 -4 17 -10 36 l-9 35 24 -28 c14 -15 25 -34 25
-42z m1539 38 c14 -30 3 -43 -36 -43 -27 0 -28 2 -8 40 19 37 28 38 44 3z
m1611 -29 c0 -14 -27 -18 -54 -8 -14 5 -14 9 1 37 l16 31 18 -23 c11 -13 19
-29 19 -37z m-2029 23 l57 -23 -52 -18 c-47 -17 -49 -19 -28 -27 13 -5 63 -12
110 -16 l86 -6 -37 -33 c-21 -17 -49 -34 -63 -37 -36 -7 -159 9 -219 28 -71
22 -144 62 -125 68 8 3 40 13 70 22 40 11 145 58 145 65 0 0 25 -10 56 -23z
m150 -43 c71 -12 41 -24 -58 -24 -59 0 -93 4 -87 9 13 13 76 30 92 25 8 -2 31
-7 53 -10z m2214 -4 c14 -5 25 -12 25 -15 0 -3 -40 -5 -90 -5 -97 0 -116 11
-47 28 43 10 68 9 112 -8z m-1963 -6 l39 6 -3 -32 c-2 -25 -9 -34 -28 -39 -35
-10 -150 -11 -150 -1 0 4 14 24 31 45 26 32 33 35 51 26 12 -6 38 -8 60 -5z
m1682 -72 c-33 -2 -76 2 -96 8 -33 9 -38 15 -38 41 0 30 1 31 39 24 23 -4 48
-2 58 4 15 9 24 4 57 -32 l38 -42 -58 -3z m-1599 47 c4 -5 19 -15 33 -20 l27
-11 -34 -29 c-40 -33 -51 -26 -51 34 0 36 12 48 25 26z m1440 -87 c-3 -3 -19
8 -36 25 l-31 30 34 20 33 19 3 -44 c2 -24 1 -47 -3 -50z m-1260 31 c-18 -44
-68 -109 -81 -106 -12 3 -22 40 -23 91 -1 37 2 43 17 38 9 -3 33 -1 52 3 19 5
38 9 43 10 4 1 0 -16 -8 -36z m1138 23 c30 -2 32 -5 30 -35 0 -18 -4 -49 -8
-68 l-6 -35 -31 28 c-29 28 -68 93 -68 114 0 6 10 8 25 4 14 -4 40 -7 58 -8z
m-1349 -70 c5 -16 9 -16 23 -5 12 10 15 10 9 1 -8 -13 -47 -35 -83 -46 -19 -6
-23 -4 -23 14 0 27 26 77 42 83 12 4 19 -6 32 -47z m1545 16 c5 -15 13 -38 16
-51 7 -22 5 -23 -21 -17 -16 4 -44 17 -61 28 -36 21 -45 35 -13 18 17 -9 20
-6 25 24 5 26 11 33 25 29 10 -3 23 -17 29 -31z m1219 -57 c80 -113 95 -153
90 -244 -3 -42 -11 -86 -18 -97 -13 -22 -14 -22 -61 15 -94 70 -131 202 -94
336 9 36 20 65 24 64 3 0 30 -33 59 -74z m-3084 38 l35 -16 -37 -33 -37 -32
45 5 c25 3 63 9 85 14 22 4 41 6 43 4 2 -2 1 -17 -3 -33 -5 -27 -11 -30 -58
-36 -68 -8 -182 -8 -241 0 l-47 7 48 33 c26 18 66 49 88 68 22 19 41 35 42 36
1 0 18 -8 37 -17z m1786 -51 c-6 -2 -24 1 -41 8 -21 9 -29 19 -29 37 l0 24 41
-33 c22 -18 35 -34 29 -36z m434 21 c28 -25 67 -55 86 -67 l34 -20 -34 -8
c-19 -5 -95 -7 -168 -6 -107 3 -133 6 -136 18 -3 8 -8 26 -11 39 -7 22 -5 23
21 16 43 -11 144 -22 144 -16 0 3 -16 17 -35 31 l-34 25 37 17 c20 9 39 17 41
17 1 1 26 -20 55 -46z m1526 39 c0 -18 -59 -99 -98 -134 -70 -63 -117 -83
-199 -82 -40 0 -78 5 -84 11 -16 16 33 106 74 138 46 34 108 54 203 64 43 5
85 9 92 10 6 0 12 -3 12 -7z m-4519 -74 l37 -63 -31 -7 c-26 -6 -35 -3 -49 15
-10 12 -15 28 -13 35 3 8 5 32 5 54 0 48 1 48 51 -34z m1176 35 c-15 -15 -67
-28 -67 -17 0 5 15 19 32 31 24 17 34 19 40 10 4 -6 2 -17 -5 -24z m-259 1
c-8 -7 -108 -34 -128 -34 -10 0 -7 7 10 20 17 13 41 20 74 20 27 0 47 -3 44
-6z m1953 -14 l24 -21 -35 6 c-55 10 -110 25 -110 30 0 3 22 5 49 5 35 0 56
-6 72 -20z m-1781 -25 c0 -9 6 -12 18 -8 15 6 14 4 -3 -16 -26 -30 -115 -95
-121 -89 -7 7 84 128 96 128 5 0 10 -7 10 -15z m100 2 c0 -14 -89 -103 -135
-135 -46 -31 -136 -53 -200 -50 l-56 3 44 57 c25 31 47 55 50 52 3 -3 31 11
62 31 31 20 61 35 65 33 4 -2 -9 -32 -31 -67 -21 -36 -37 -67 -34 -69 8 -8
110 59 166 109 57 51 69 57 69 36z m1353 -26 c23 -21 69 -57 101 -80 90 -62
97 -56 36 37 -22 34 -34 62 -27 62 6 0 39 -18 71 -39 33 -22 63 -38 67 -36 4
3 15 -8 24 -23 10 -15 29 -40 44 -56 l26 -28 -85 4 c-111 6 -180 36 -260 117
-57 57 -72 81 -50 81 6 0 29 -17 53 -39z m141 -72 l19 -33 -61 43 c-33 24 -69
52 -79 63 -18 20 -17 20 5 14 17 -6 22 -3 22 11 1 13 10 8 38 -23 20 -23 46
-56 56 -75z m-2615 -4 c16 -8 34 -29 41 -47 7 -18 23 -44 35 -58 13 -14 26
-36 30 -48 6 -21 4 -23 -15 -17 -12 4 -30 1 -43 -8 -20 -13 -26 -13 -42 -1
-46 34 -125 5 -125 -45 l0 -29 -37 13 c-34 12 -38 17 -41 50 -4 47 13 89 44
110 13 8 24 21 24 28 0 15 37 51 60 60 25 9 40 8 69 -8z m3660 -81 c71 -122
85 -195 57 -288 -25 -81 -32 -84 -88 -29 -89 88 -102 208 -39 366 6 15 14 27
18 27 5 -1 28 -35 52 -76z m661 -25 c0 -16 -72 -98 -107 -122 -52 -36 -134
-67 -176 -67 -43 0 -122 25 -122 38 0 6 14 31 32 56 33 47 85 80 150 95 41 10
223 10 223 0z m-4315 -100 c20 -18 21 -18 42 2 15 15 28 20 45 15 50 -13 50
-20 -1 -73 -69 -72 -80 -123 -53 -253 11 -52 23 -104 27 -115 5 -14 -1 -11
-19 10 -28 33 -37 53 -60 137 -13 46 -24 64 -58 90 -64 50 -128 114 -128 127
0 14 45 14 71 1 17 -9 19 -7 19 18 0 67 63 89 115 41z m3508 -84 c45 -100 55
-172 33 -247 -8 -30 -25 -67 -37 -82 l-21 -27 -30 33 c-71 80 -91 195 -55 303
21 63 56 120 66 109 4 -5 24 -45 44 -89z m-3293 19 c25 -25 80 -77 123 -115
42 -38 71 -69 63 -69 -17 0 -78 39 -119 75 -15 14 -41 28 -56 31 -16 4 -48 25
-71 49 l-42 43 23 16 c13 9 26 16 29 16 3 0 26 -21 50 -46z m-520 -29 c0 -3
-7 -17 -16 -30 -9 -13 -14 -32 -12 -41 2 -9 -12 -32 -29 -50 -38 -37 -44 -85
-16 -116 16 -17 16 -20 0 -36 -16 -15 -20 -15 -45 -2 -15 9 -31 29 -35 45 -5
17 -15 43 -23 58 -36 73 6 157 78 157 18 0 40 5 48 10 16 10 50 14 50 5z m89
-108 c20 -33 44 -51 86 -67 l23 -9 -20 47 c-12 26 -28 58 -37 72 -18 27 -12
25 41 -13 28 -21 63 -91 53 -108 -4 -5 5 -14 19 -20 22 -10 46 -62 34 -74 -2
-2 -22 2 -43 10 -68 24 -115 19 -208 -25 -47 -22 -90 -40 -96 -40 -19 0 -12
27 14 58 l24 29 -24 11 c-20 9 -25 19 -25 46 0 28 7 41 36 65 25 20 35 35 30
46 -7 19 9 54 33 72 14 10 18 6 28 -28 7 -22 21 -54 32 -72z m2084 -136 l96
-215 16 30 c9 16 40 72 68 124 28 52 52 89 54 83 4 -11 -105 -228 -130 -261
-7 -9 -36 47 -105 200 -52 117 -97 216 -101 221 -4 4 -52 -92 -106 -213 -54
-121 -99 -220 -101 -220 -8 0 -134 250 -134 266 0 10 29 -34 63 -98 35 -65 66
-120 69 -123 3 -3 49 94 104 215 54 121 101 217 105 213 3 -5 50 -104 102
-222z m2215 186 l84 -13 -54 -51 c-67 -62 -115 -88 -195 -102 -51 -10 -68 -9
-105 4 -23 9 -51 19 -60 22 -25 8 -22 23 15 64 72 81 152 100 315 76z m-3843
-19 c14 -6 25 -15 25 -20 0 -5 16 -18 35 -29 l35 -21 -23 -28 c-17 -22 -28
-27 -49 -23 -56 11 -118 -26 -118 -71 0 -18 -7 -25 -32 -30 -21 -4 -35 -2 -40
6 -12 18 -2 77 17 98 8 9 15 30 15 46 1 65 69 102 135 72z m3096 -94 c24 -79
30 -111 26 -159 -5 -67 -45 -158 -76 -174 -16 -9 -24 -3 -53 41 -31 50 -33 57
-33 143 0 71 5 100 22 137 22 48 73 122 79 115 2 -2 18 -48 35 -103z m-1491
-99 c100 -223 95 -201 50 -197 -52 5 -85 -26 -77 -74 l6 -34 -63 0 -62 0 4 35
c6 51 -20 78 -70 73 -21 -2 -38 -1 -38 2 0 19 165 369 171 363 4 -4 40 -80 79
-168z m-1430 91 c0 -2 -7 -16 -15 -32 -8 -15 -22 -60 -31 -99 -15 -67 -15 -75
5 -179 11 -60 20 -111 18 -112 -1 -1 -12 2 -24 7 -15 5 -26 22 -33 51 -6 24
-22 60 -36 81 -21 32 -30 37 -61 37 -41 0 -111 30 -138 60 -24 26 -5 50 39 50
31 0 32 2 28 31 -4 25 1 36 19 50 26 20 84 25 94 9 10 -16 19 -12 37 20 15 26
23 30 58 30 22 0 40 -2 40 -4z m87 -55 c60 -43 113 -110 113 -143 0 -25 2 -27
29 -22 26 5 33 2 50 -27 11 -18 23 -52 27 -76 4 -29 12 -44 25 -48 40 -13 48
-43 47 -170 l-2 -119 55 -23 c30 -12 59 -22 64 -23 6 0 10 28 10 64 0 50 5 71
21 93 27 36 65 50 101 37 51 -18 68 -99 19 -92 -16 2 -21 10 -20 33 1 50 -32
60 -71 20 -51 -50 -22 -152 63 -223 65 -55 95 -116 96 -196 2 -144 -109 -230
-228 -178 -38 18 -50 30 -67 68 -24 54 -18 97 17 121 19 12 24 11 44 -5 20
-16 21 -21 10 -41 -7 -15 -18 -21 -30 -18 -15 4 -16 0 -9 -32 4 -20 18 -44 30
-54 27 -21 90 -22 130 -1 56 29 87 145 58 221 -21 58 -108 123 -162 123 -31 0
-77 -36 -77 -60 0 -36 11 -52 27 -39 11 10 18 9 31 -4 15 -16 15 -18 0 -33
-14 -14 -18 -14 -47 0 -57 30 -54 100 6 140 l36 25 -26 11 c-39 15 -67 26
-109 44 l-37 16 -55 -46 c-74 -59 -112 -74 -194 -74 -58 0 -72 3 -88 22 -19
21 -19 21 1 14 40 -15 123 -18 160 -6 40 13 160 103 145 108 -5 2 -35 -2 -66
-7 -90 -17 -173 -13 -223 9 -24 11 -52 20 -63 20 -11 0 -48 13 -82 28 -33 15
-74 33 -91 39 -16 6 -38 14 -49 18 -18 8 -18 7 -1 -18 17 -26 17 -27 -4 -27
-13 0 -30 14 -47 40 -15 22 -25 42 -23 44 14 12 120 56 150 61 29 5 41 2 65
-18 l28 -25 11 22 c17 33 101 29 148 -6 29 -23 39 -26 66 -18 44 12 58 6 122
-59 54 -54 129 -108 129 -92 0 4 -24 28 -54 54 -54 46 -136 157 -136 183 0 8
-8 22 -18 32 -9 9 -26 44 -36 77 -10 33 -23 69 -27 80 -5 11 -14 34 -20 50
l-12 30 -9 -30 c-15 -51 -12 -205 6 -254 20 -55 20 -54 -7 -36 -24 15 -47 85
-47 143 -1 39 43 282 51 282 3 0 24 -13 46 -29z m2644 -98 c22 -108 18 -162
-14 -231 -20 -44 -68 -102 -84 -102 -5 0 -22 27 -38 59 -24 52 -27 67 -23 124
7 78 41 158 93 216 21 23 40 39 42 37 3 -3 14 -49 24 -103z m737 36 l93 -22
-28 -29 c-15 -16 -59 -44 -97 -63 -60 -30 -78 -35 -142 -35 -62 0 -82 5 -124
28 -27 15 -50 30 -50 34 0 12 95 85 125 96 48 17 123 14 223 -9z m-3778 -128
c0 -6 39 -31 88 -55 89 -45 141 -80 132 -90 -3 -3 -39 0 -80 5 -94 13 -129 6
-166 -32 -28 -30 -42 -38 -91 -53 -20 -6 -23 -4 -23 19 0 14 5 35 11 47 9 16
7 23 -10 35 -28 19 -29 85 -2 112 12 12 17 27 14 45 -3 14 0 40 7 56 l13 30
53 -54 c30 -30 54 -59 54 -65z m-150 42 c0 -21 -7 -47 -15 -57 -20 -27 -19
-95 2 -118 13 -15 14 -23 5 -43 -10 -22 -15 -24 -39 -14 -15 5 -36 19 -47 29
-12 11 -33 31 -48 44 -48 43 -32 109 32 136 16 7 30 16 30 21 0 10 49 38 68
39 7 0 12 -14 12 -37z m2974 -148 c1 -88 -2 -106 -24 -148 -26 -53 -98 -124
-109 -110 -4 4 -16 30 -26 57 -39 106 -3 236 92 331 l48 48 9 -39 c5 -21 9
-84 10 -139z m-2434 95 c0 -20 36 -107 54 -130 7 -8 19 -31 28 -51 l16 -35
-49 0 c-47 1 -49 2 -65 41 -18 42 -31 202 -20 232 6 14 9 13 21 -11 8 -16 15
-36 15 -46z m954 -32 c54 -97 54 -95 4 -89 l-43 6 -3 73 c-2 39 -1 72 2 72 3
0 21 -28 40 -62z m673 -75 c-7 -6 -90 -23 -94 -19 -2 2 16 38 40 81 l42 78 9
-67 c5 -37 6 -70 3 -73z m1557 26 l89 -33 -24 -19 c-13 -11 -49 -32 -79 -46
-47 -22 -68 -26 -150 -26 -93 0 -96 1 -148 36 l-53 37 41 32 c88 70 171 74
324 19z m-2010 15 c32 -32 13 -74 -33 -74 -24 1 -25 2 -8 14 19 15 23 41 7 51
-5 3 -10 10 -10 16 0 14 27 11 44 -7z m223 -2 c-10 -10 -17 -22 -17 -27 0 -5
7 -17 17 -27 15 -17 15 -18 -3 -18 -26 0 -44 19 -44 45 0 26 18 45 44 45 18 0
18 -1 3 -18z m1550 -204 c61 -30 88 -49 81 -56 -6 -6 -24 -6 -46 -1 -45 10
-71 4 -144 -32 -66 -33 -89 -35 -140 -11 -33 15 -108 75 -108 86 0 2 24 18 53
36 49 29 57 31 132 27 70 -4 91 -9 172 -49z m-2029 11 c69 -10 82 -15 77 -28
-16 -40 -15 -80 4 -135 22 -63 27 -101 12 -92 -14 9 -61 -12 -61 -27 0 -25 47
-66 84 -72 77 -15 156 25 156 80 0 20 -8 29 -35 41 -67 28 -58 71 19 90 27 7
58 21 70 32 l21 21 26 -23 c15 -13 44 -26 66 -29 44 -7 77 -36 68 -59 -3 -8
-20 -21 -37 -29 -46 -20 -55 -41 -34 -74 49 -74 203 -67 222 11 8 31 2 37 -36
37 -17 0 -30 4 -30 8 0 4 9 37 21 75 20 63 21 108 5 144 -5 13 8 18 76 28 46
7 96 16 112 19 l28 6 -25 -39 c-33 -49 -55 -130 -42 -148 41 -55 49 -74 53
-121 4 -47 1 -57 -21 -79 l-26 -26 -415 0 c-287 0 -423 3 -440 11 -53 25 -59
109 -11 180 33 50 32 88 -6 162 -30 59 -30 60 -7 53 13 -3 60 -11 106 -17z
m-1150 -96 c46 -19 86 -32 89 -29 3 3 24 -4 46 -16 44 -22 126 -28 211 -14 55
9 55 2 -3 -38 -88 -61 -198 -54 -303 21 -35 24 -80 53 -100 64 -21 10 -42 28
-48 39 -13 23 -12 23 108 -27z m-73 -33 c75 -36 162 -113 219 -193 49 -69 71
-116 91 -197 l15 -55 -3 76 c-2 66 -6 83 -35 128 -17 29 -32 55 -32 58 0 12
138 -3 155 -17 9 -8 44 -68 77 -134 145 -291 286 -441 519 -550 324 -152 820
-150 1145 5 220 104 366 262 512 554 68 137 78 145 172 145 l60 0 -30 -47
c-36 -56 -50 -102 -50 -161 0 -53 15 -48 23 7 12 93 95 221 199 309 154 130
276 140 332 28 18 -36 18 -39 -4 -124 -74 -297 -77 -369 -20 -566 42 -147 51
-239 27 -286 -17 -34 -61 -53 -103 -46 -43 9 -77 64 -100 163 -19 85 -8 140
33 173 36 28 62 22 90 -19 28 -42 30 -33 3 19 -52 102 -164 23 -165 -116 l0
-61 -24 18 c-13 11 -29 19 -35 19 -6 0 -18 15 -26 33 -8 18 -31 41 -52 52 -21
11 -38 23 -38 26 0 4 15 32 34 62 18 31 62 125 96 209 103 249 130 294 168
281 18 -7 15 -75 -6 -131 -10 -27 -38 -73 -61 -102 -82 -103 -100 -166 -60
-211 19 -23 20 -23 10 -2 -28 56 -11 101 81 223 50 65 78 138 78 201 0 46 -19
63 -63 55 -48 -9 -80 -50 -111 -141 -34 -99 -133 -307 -188 -395 -117 -186
-299 -373 -485 -497 -169 -112 -339 -180 -558 -221 -131 -24 -515 -24 -640 1
-184 37 -281 70 -425 144 -344 176 -625 503 -776 901 -55 146 -71 176 -103
195 -37 21 -65 22 -86 1 -13 -13 -15 -28 -10 -68 9 -70 43 -139 103 -214 58
-70 75 -117 61 -164 -12 -44 -2 -48 16 -6 22 54 6 98 -76 206 -65 84 -98 194
-66 220 20 17 53 -11 81 -66 13 -26 47 -105 76 -177 57 -141 101 -234 132
-278 11 -16 19 -29 17 -30 -2 -1 -21 -10 -41 -21 -22 -11 -44 -32 -53 -52 -9
-19 -21 -34 -27 -34 -7 0 -23 -11 -37 -25 l-26 -24 4 45 c5 69 -6 107 -45 153
-45 52 -77 53 -111 2 -13 -19 -23 -39 -23 -45 0 -6 9 4 20 22 24 40 50 41 91
4 41 -36 49 -102 24 -188 -34 -122 -91 -167 -163 -130 -64 33 -66 127 -8 322
19 65 38 142 42 169 7 61 -8 166 -47 327 -16 66 -29 133 -29 149 0 39 24 85
52 100 64 34 93 33 183 -11z m2944 -6 l71 -35 -47 -55 c-44 -51 -49 -54 -93
-54 -71 0 -134 26 -185 77 -26 25 -45 46 -43 48 2 1 26 14 53 28 77 40 152 37
244 -9z m-2383 -356 c156 -312 380 -488 715 -559 140 -30 427 -33 564 -6 352
70 584 245 743 564 36 70 62 108 62 88 0 -3 -19 -42 -41 -88 -205 -407 -533
-597 -1034 -597 -419 0 -727 141 -927 424 -57 80 -153 266 -138 266 5 0 30
-41 56 -92z m1478 61 c31 -15 43 -46 52 -134 3 -38 13 -82 20 -97 17 -33 63
-66 103 -74 17 -4 31 -12 31 -18 0 -20 -45 -89 -65 -100 -11 -6 -25 -17 -31
-25 -7 -9 -21 -12 -38 -9 -19 4 -31 0 -44 -16 -27 -35 -69 -58 -92 -51 -16 5
-20 15 -20 54 0 26 -5 73 -11 104 -10 51 -9 63 11 116 14 39 20 70 15 89 -18
84 -156 124 -226 65 -36 -31 -68 -94 -69 -137 0 -25 3 -27 23 -22 60 18 98 19
117 1 24 -21 26 -58 5 -75 -8 -7 -15 -23 -15 -36 0 -33 -72 -104 -140 -138
-30 -16 -65 -37 -76 -48 -18 -16 -22 -17 -27 -4 -3 8 -35 29 -71 45 -72 34
-142 101 -152 145 -4 17 -13 36 -20 44 -37 37 9 90 69 79 17 -4 42 -9 55 -13
19 -6 22 -3 22 25 0 47 -23 92 -64 129 -30 26 -45 32 -84 32 -61 0 -111 -27
-134 -72 -18 -35 -18 -36 6 -105 22 -59 24 -75 15 -108 -6 -21 -14 -68 -18
-104 -5 -59 -8 -66 -29 -69 -16 -3 -35 8 -62 36 -32 31 -45 38 -66 34 -17 -3
-31 0 -38 10 -6 8 -19 17 -28 21 -14 5 -68 93 -68 111 0 2 16 7 35 10 47 9
102 59 115 104 5 20 10 60 10 87 0 59 16 95 50 112 34 17 897 19 934 2z
m-1782 -542 l46 -53 -64 -18 c-35 -10 -71 -24 -80 -31 -16 -11 -16 -15 3 -53
11 -23 18 -44 15 -47 -3 -3 -19 -5 -36 -5 -36 0 -73 23 -87 54 -7 16 -9 13 -5
-17 6 -43 -19 -81 -59 -91 -16 -4 -26 -16 -30 -36 -5 -23 -12 -30 -31 -30 -32
0 -31 20 6 98 30 63 45 76 53 45 3 -13 5 -11 6 6 2 36 37 85 76 107 22 12 39
30 46 51 11 36 52 73 78 73 10 0 38 -24 63 -53z m2744 19 c19 -19 34 -43 34
-54 0 -13 9 -22 24 -26 39 -10 86 -71 86 -114 l1 -37 13 30 13 30 37 -75 c43
-88 44 -100 10 -100 -19 0 -28 7 -35 30 -6 16 -20 32 -32 36 -12 4 -32 18 -45
31 -17 19 -20 28 -12 43 5 10 10 27 10 37 -1 14 -4 11 -16 -9 -18 -34 -43 -48
-87 -48 -45 0 -49 6 -26 43 31 52 26 60 -56 86 -41 12 -75 25 -75 28 0 15 88
103 104 103 10 0 33 -15 52 -34z m-95 -122 c19 -13 40 -24 46 -24 19 0 25 -18
13 -41 -9 -16 -18 -19 -38 -15 -24 5 -22 3 8 -14 20 -11 55 -19 81 -20 40 0
54 -6 102 -45 61 -51 70 -71 60 -140 -7 -56 -29 -73 -103 -82 l-52 -6 4 39 c3
21 8 48 11 59 4 11 -1 3 -11 -17 -22 -48 -42 -49 -42 -3 0 99 97 155 130 76
10 -25 9 -35 -4 -63 -14 -27 -14 -30 -2 -18 27 27 30 72 6 103 -19 24 -28 27
-80 27 -55 0 -60 2 -90 38 -17 20 -28 30 -25 21 8 -23 -15 -36 -29 -17 -6 8
-22 18 -36 21 -14 4 -40 26 -57 50 -30 39 -31 43 -15 55 9 7 29 12 44 9 15 -2
25 0 22 5 -3 4 -12 8 -20 8 -15 0 -19 12 -7 23 10 10 43 -1 84 -29z m-2576 16
c3 -5 -3 -10 -13 -10 -11 0 -25 -7 -32 -16 -12 -13 -10 -14 13 -3 21 9 33 10
53 1 l25 -12 -32 -44 c-32 -46 -53 -61 -71 -50 -5 3 -12 -3 -15 -15 -7 -28
-33 -27 -33 1 0 22 0 22 -16 -2 -28 -41 -45 -50 -103 -50 -37 0 -60 -5 -73
-17 -25 -23 -24 -84 3 -114 l21 -24 -16 25 c-9 13 -16 37 -16 52 0 30 31 68
55 68 26 0 63 -45 75 -89 18 -66 -9 -87 -34 -26 -17 40 -31 48 -16 9 6 -14 10
-39 10 -56 l0 -31 -47 7 c-76 10 -98 32 -100 102 -3 62 0 68 55 118 23 21 46
31 85 37 29 4 73 17 98 28 28 14 35 20 18 17 -17 -4 -31 0 -39 9 -14 17 -7 45
13 45 7 0 28 11 47 25 35 26 74 33 85 15z m66 -121 c4 -8 13 -41 19 -74 16
-75 57 -121 119 -131 38 -6 41 -9 41 -39 0 -55 -30 -66 -136 -50 -24 4 -50 2
-62 -4 -16 -9 -21 -7 -25 8 -10 38 15 66 63 72 l45 5 -38 8 c-55 12 -150 1
-196 -21 l-39 -20 -6 42 c-4 22 -15 55 -26 73 -15 24 -16 32 -6 32 7 0 25 9
40 21 31 25 42 19 67 -35 19 -42 27 -28 9 18 -11 29 -4 56 14 56 7 0 30 13 52
30 41 31 53 33 65 9z m2409 -4 c13 -14 33 -25 45 -25 24 0 52 -45 35 -55 -6
-4 -10 -16 -10 -28 1 -18 5 -15 21 16 23 43 27 44 62 17 14 -11 32 -20 41 -20
14 0 13 -4 -5 -29 -12 -16 -24 -49 -26 -74 l-5 -45 -47 21 c-53 23 -164 34
-201 19 -23 -10 -22 -11 16 -11 32 -1 43 -6 53 -25 16 -29 10 -63 -10 -56 -13
4 -41 4 -141 -2 -46 -3 -68 16 -68 57 0 30 3 33 36 40 79 14 113 51 130 140
16 90 33 104 74 60z"/>
<path d="M960 5988 c-32 -43 -70 -152 -70 -197 1 -44 35 -105 79 -140 23 -19
44 -31 47 -28 3 3 -13 17 -36 32 -25 15 -47 40 -56 60 -31 76 -6 205 54 276
18 21 29 39 23 39 -6 0 -24 -19 -41 -42z"/>
<path d="M1541 5748 l64 -43 -117 -5 c-64 -3 -121 -9 -125 -14 -4 -5 10 -6 32
-3 22 4 82 7 134 7 93 0 94 0 76 20 -20 22 -107 80 -120 80 -4 0 21 -19 56
-42z"/>
<path d="M1303 5670 c-35 -14 -27 -20 10 -8 17 6 34 13 36 14 8 7 -24 3 -46
-6z"/>
<path d="M301 4794 c0 -11 3 -14 6 -6 3 7 2 16 -1 19 -3 4 -6 -2 -5 -13z"/>
<path d="M245 4760 c-9 -16 -13 -30 -11 -30 3 0 12 14 21 30 9 17 13 30 11 30
-3 0 -12 -13 -21 -30z"/>
<path d="M291 4754 c0 -11 3 -14 6 -6 3 7 2 16 -1 19 -3 4 -6 -2 -5 -13z"/>
<path d="M201 4665 c-12 -31 -21 -63 -21 -73 0 -9 11 15 24 53 29 84 27 99 -3
20z"/>
<path d="M785 4840 c-11 -5 -16 -9 -12 -9 4 -1 -25 -38 -66 -84 -46 -52 -89
-113 -112 -161 -21 -42 -42 -79 -47 -82 -4 -3 -8 -26 -8 -52 -1 -26 -7 -64
-14 -85 -8 -20 -10 -39 -6 -42 9 -6 40 100 40 137 0 61 146 290 229 358 35 30
34 36 -4 20z"/>
<path d="M700 4805 c-135 -70 -256 -253 -234 -353 7 -34 36 -103 41 -99 2 2
-4 20 -12 40 -19 46 -19 117 0 163 24 57 103 169 138 194 17 14 55 37 82 52
61 34 48 37 -15 3z"/>
<path d="M236 2945 c12 -79 68 -228 107 -288 54 -84 155 -179 229 -216 78 -39
160 -43 219 -9 22 12 39 24 39 27 -1 3 -50 39 -110 80 -142 95 -283 213 -363
304 -36 40 -79 88 -96 107 l-32 35 7 -40z m354 -334 c47 -34 113 -81 148 -103
34 -23 62 -45 62 -50 0 -5 -17 -16 -37 -25 -49 -20 -120 -12 -188 21 -68 34
-193 160 -234 235 -32 61 -81 192 -81 218 0 7 55 -42 123 -110 67 -68 160
-151 207 -186z"/>
<path d="M2855 2054 c-33 -75 -61 -139 -63 -143 -1 -4 25 -29 59 -56 69 -54
70 -54 150 14 l43 38 -57 129 c-32 71 -61 134 -65 141 -5 8 -31 -41 -67 -123z
m115 -41 l43 -97 -44 -38 c-24 -21 -48 -38 -54 -38 -5 0 -29 17 -53 38 l-43
37 47 102 c26 56 50 100 54 98 4 -2 26 -48 50 -102z"/>
</g>
</svg>
