<?xml version="1.0" encoding="UTF-8"?>
<svg version="1.1" xmlns="http://www.w3.org/2000/svg" width="512" height="512">
<path d="M0 0 C2.51037142 0.91417253 3.75358667 2.03546494 5.64119538 3.92099105 C6.32844711 4.60021978 7.01569884 5.27944851 7.72377639 5.97925993 C8.47240958 6.73434492 9.22104276 7.48942991 9.9923618 8.26739626 C11.19763539 9.46523058 11.19763539 9.46523058 12.42725794 10.68726357 C14.66760714 12.91684829 16.90107435 15.15307693 19.13187199 17.39221111 C21.55605416 19.82217837 23.98886695 22.24347829 26.42060371 24.66588115 C30.68511219 28.91644518 34.94396806 33.17260871 39.1992109 37.43244772 C45.52672486 43.76677851 51.86273156 50.09256252 58.20042604 56.4167053 C70.17561872 68.36695055 82.14056646 80.32741846 94.10234427 92.2910895 C103.33619039 101.52630701 112.57262218 110.75893109 121.81089761 119.98971777 C123.13664909 121.31441893 124.46239922 122.63912144 125.788148 123.9638253 C126.77523906 124.95013734 126.77523906 124.95013734 127.78227134 125.95637487 C128.44151289 126.61509628 129.10075443 127.27381768 129.77997299 127.95250033 C130.44029123 128.61229458 131.10060948 129.27208884 131.78093736 129.95187685 C150.35998587 148.51633622 168.93587537 167.08395173 187.50532414 185.65801363 C188.55600523 186.70895265 188.55600523 186.70895265 189.6279122 187.78112276 C193.17834653 191.33244603 196.72875292 194.88379723 200.27914959 198.43515816 C200.98431189 199.14051149 201.68947419 199.84586483 202.41600504 200.5725925 C203.84201426 201.99898881 205.26802187 203.42538674 206.69402785 204.85178629 C228.89215009 227.05588108 251.10095745 249.24923868 273.31812455 271.43427687 C298.25987607 296.33999022 323.19328043 321.2540177 348.11454292 346.18023394 C350.76930322 348.83546425 353.4240934 351.49066467 356.07890298 354.1458457 C357.05947038 355.12656668 357.05947038 355.12656668 358.05984722 356.1271002 C367.94795818 366.01640828 377.84264941 375.89910052 387.74068047 385.77847891 C398.99018535 397.00679497 410.23103208 408.24369431 421.46022629 419.49232432 C427.75131351 425.7937753 434.04929283 432.08815186 440.35719971 438.37276689 C444.56302457 442.56443034 448.75979705 446.76501032 452.9491367 450.97314964 C455.34093509 453.37516386 457.73661698 455.77293801 460.14332699 458.16001924 C462.72635382 460.72610163 465.29376553 463.30682096 467.85756566 465.89209108 C468.61790468 466.64015258 469.37824369 467.38821407 470.16162329 468.15894409 C470.83635743 468.84568337 471.51109157 469.53242266 472.2062722 470.23997222 C473.09050976 471.12404675 473.09050976 471.12404675 473.9926107 472.02598137 C475.11036088 473.76850538 475.11036088 473.76850538 474.87837327 475.87788129 C473.92702824 478.21981724 472.71380003 479.55965317 470.9392183 481.35956984 C470.27149903 482.04320097 469.60377976 482.7268321 468.91582658 483.43117933 C467.82682809 484.52047995 467.82682809 484.52047995 466.71582963 485.63178663 C465.97206574 486.38316404 465.22830186 487.13454146 464.46199967 487.90868788 C462.88797704 489.49351259 461.30996132 491.07437993 459.7282808 492.65156202 C457.30358431 495.07528425 454.90099489 497.51954214 452.49903275 499.96577101 C450.96843389 501.50157508 449.43657467 503.03612432 447.90332963 504.56928663 C447.18340333 505.3056082 446.46347703 506.04192976 445.72173478 506.8005641 C445.04455903 507.46843443 444.36738328 508.13630476 443.66968705 508.82441359 C443.07757935 509.41857573 442.48547166 510.01273787 441.8754213 510.62490492 C440.11036088 511.76850538 440.11036088 511.76850538 438.2318361 511.77515822 C435.1345631 510.30548343 432.97447315 508.02426408 430.60743119 505.60615187 C430.0704007 505.06955946 429.53337022 504.53296705 428.98006608 503.98011427 C427.20900125 502.20696153 425.4487957 500.42342412 423.68848588 498.63959913 C422.46174465 497.40726198 421.23433884 496.17558605 420.00629594 494.94454603 C416.7774534 491.70425456 413.55772154 488.45505478 410.33979203 485.20393019 C407.05391677 481.88735528 403.75952209 478.57926705 400.46582963 475.27045851 C394.00563072 468.77809459 387.55502298 462.27628964 381.11036088 455.76850538 C376.9837484 458.50192998 372.96963531 461.33169377 368.98536088 464.26850538 C347.82557587 479.48664789 324.10997835 492.20669149 299.11036088 499.76850538 C297.76989701 500.17456007 297.76989701 500.17456007 296.40235307 500.58881788 C291.7452237 501.98454211 287.07925201 503.3492437 282.39942338 504.66694288 C281.64354936 504.88012159 280.88767533 505.09330031 280.10889604 505.31293898 C278.11036088 505.76850538 278.11036088 505.76850538 275.11036088 505.76850538 C275.11036088 485.96850538 275.11036088 466.16850538 275.11036088 445.76850538 C281.38036088 443.45850538 287.65036088 441.14850538 294.11036088 438.76850538 C297.33758659 437.42146892 300.47192035 436.09251023 303.61036088 434.58100538 C304.37243852 434.21716749 305.13451615 433.8533296 305.91968705 433.47846632 C317.42040544 427.8250332 328.27344933 420.96593167 338.11036088 412.76850538 C299.17036088 373.82850538 260.23036088 334.88850538 220.11036088 294.76850538 C219.78036088 357.13850538 219.45036088 419.50850538 219.11036088 483.76850538 C214.44885912 479.77293245 210.78303827 476.48107518 206.91057755 471.92858534 C205.92031205 470.77413467 204.92985727 469.61984634 203.93924214 468.46569567 C203.41984661 467.85691769 202.90045108 467.24813971 202.36531629 466.62091391 C185.83581921 447.28637549 168.70755018 428.4988423 151.29786088 409.95600538 C150.54958826 409.15790371 149.80131565 408.35980203 149.03036811 407.53751545 C103.83153413 357.19273725 103.83153413 357.19273725 42.79004838 333.60444288 C41.55824971 333.469722 40.32645104 333.33500113 39.05732514 333.1961978 C13.63883863 331.00590684 -12.22528429 337.73713722 -36.88963912 341.76850538 C-36.88963912 285.00850538 -36.88963912 228.24850538 -36.88963912 169.76850538 C6.34036088 169.43850538 49.57036088 169.10850538 94.11036088 168.76850538 C79.90811479 154.65327101 79.90811479 154.65327101 65.41895463 140.25288038 C59.44297003 134.3024293 53.46762446 128.35135887 47.4951265 122.39741163 C38.00542399 112.93741997 28.51313397 103.48012667 19.00415971 94.03950148 C12.07997019 87.16505846 5.16453559 80.28195012 -1.74041049 73.38817649 C-5.39879661 69.73632389 -9.0614957 66.08904067 -12.73470328 62.4520915 C-16.18866514 59.03195049 -19.63083991 55.60038557 -23.06415771 52.1595252 C-24.32927926 50.89578442 -25.59872346 49.63635472 -26.87266563 48.38150625 C-28.60569806 46.67319322 -30.32279405 44.95033176 -32.03662704 43.22279005 C-32.5492541 42.72472719 -33.06188117 42.22666433 -33.59004239 41.71350865 C-34.9668114 40.30657225 -34.9668114 40.30657225 -36.88963912 37.76850538 C-36.71714669 34.27773728 -35.12041938 32.61365498 -32.71849654 30.17744093 C-32.05077727 29.4938098 -31.383058 28.81017866 -30.69510482 28.10583143 C-29.96910583 27.37963102 -29.24310683 26.65343062 -28.49510787 25.90522413 C-27.75134399 25.15384672 -27.0075801 24.40246931 -26.24127791 23.62832289 C-24.66725529 22.04349817 -23.08923956 20.46263083 -21.50755904 18.88544874 C-19.08286255 16.46172651 -16.68027313 14.01746863 -14.278311 11.57123976 C-12.74771213 10.03543569 -11.21585291 8.50088645 -9.68260787 6.96772413 C-8.96268157 6.23140257 -8.24275527 5.49508101 -7.50101302 4.73644667 C-6.82383727 4.06857634 -6.14666152 3.40070601 -5.44896529 2.71259718 C-4.56080375 1.82135397 -4.56080375 1.82135397 -3.65469955 0.91210585 C-1.88963912 -0.23149462 -1.88963912 -0.23149462 0 0 Z " fill="#000000" transform="translate(36.88963912054896,0.23149461671710014)"/>
<path d="M0 0 C42.23746819 8.44749364 80.66077956 28.82368734 113 57 C113.70382812 57.59167969 114.40765625 58.18335938 115.1328125 58.79296875 C119.47601696 62.47288048 123.52750901 66.42655408 127.5625 70.4375 C128.09294922 70.96327637 128.62339844 71.48905273 129.16992188 72.03076172 C142.24930801 85.16256216 153.40966308 100.16950144 163 116 C163.64066406 117.04671875 164.28132812 118.0934375 164.94140625 119.171875 C174.06886466 134.58713809 181.92645946 150.94179201 187.36914062 168.0234375 C188.00374711 170.01174016 188.6640381 171.99012157 189.328125 173.96875 C192.58785042 183.83294144 195.07274923 193.79386016 197 204 C197.15243164 204.76908691 197.30486328 205.53817383 197.46191406 206.33056641 C207.56498884 259.43171646 198.47194735 322.26122233 171 369 C165.44560076 364.37508621 160.31474331 359.44639036 155.22265625 354.3203125 C154.00563271 353.10116653 154.00563271 353.10116653 152.76402283 351.85739136 C150.1944741 349.28228262 147.62844032 346.7037038 145.0625 344.125 C143.31208071 342.36956054 141.561432 340.61434983 139.81054688 338.859375 C135.53770698 334.57555918 131.26774101 330.28889528 127 326 C127.46850001 324.43449548 127.93731188 322.86908428 128.40625 321.30371094 C128.66728516 320.43196228 128.92832031 319.56021362 129.19726562 318.66204834 C129.95430549 316.1515333 130.72395536 313.64532114 131.5 311.140625 C134.47264651 301.48634184 137.13449675 291.93691399 139 282 C139.19335938 281.10410156 139.38671875 280.20820313 139.5859375 279.28515625 C149.10919328 231.18581366 134.63117907 179.16698232 108 139 C96.64028709 122.35832307 82.92497905 107.33365001 67 95 C66.44183594 94.5654248 65.88367188 94.13084961 65.30859375 93.68310547 C56.56613243 86.9221086 47.56022516 81.11803577 37.79150391 75.95068359 C36.24036441 75.12755233 34.70279982 74.27893562 33.16796875 73.42578125 C22.52530089 67.73826475 11.446906 64.29258975 0 60 C0 40.2 0 20.4 0 0 Z " fill="#000000" transform="translate(312,6)"/>
<path d="M0 0 C4.68136294 1.48088518 8.59651478 3.37245071 12.6875 6.0625 C13.29835449 6.46170654 13.90920898 6.86091309 14.53857422 7.2722168 C43.72984441 26.6657909 63.15665659 55.32107271 70.55761719 89.58129883 C72.07993987 97.52634132 72.30878454 105.35509687 72.26074219 113.41235352 C72.24985796 115.59093043 72.26078704 117.76871099 72.2734375 119.94726562 C72.27211843 121.34114764 72.26956131 122.73502917 72.265625 124.12890625 C72.26336914 125.37744385 72.26111328 126.62598145 72.25878906 127.91235352 C72 131 72 131 70 134 C58.04363928 123.98126172 46.39713858 113.65119017 35 103 C34.16859245 102.22337761 33.33718491 101.44675522 32.48058319 100.64659882 C-3.76179806 66.52536713 -3.76179806 66.52536713 -4.90264893 40.59832764 C-4.97778129 36.25074055 -4.74557869 31.95547674 -4.375 27.625 C-4.31507874 26.91962097 -4.25515747 26.21424194 -4.19342041 25.48748779 C-3.4051101 16.86953589 -2.02390749 8.41570501 0 0 Z " fill="#000000" transform="translate(312,141)"/>
<path d="M0 0 C0 39.6 0 79.2 0 120 C-4.43012135 116.20275313 -8.5686076 112.55472907 -12.65991211 108.45361328 C-13.17787354 107.93579788 -13.69583496 107.41798248 -14.22949219 106.88447571 C-15.91449522 105.19878466 -17.5959437 103.50959669 -19.27734375 101.8203125 C-20.45539258 100.64039553 -21.63366466 99.46070142 -22.81214905 98.28121948 C-25.89347142 95.19610309 -28.97177716 92.10799411 -32.04943848 89.01922607 C-35.19844034 85.85994267 -38.35032171 82.70353484 -41.50195312 79.546875 C-47.6707711 73.36737473 -53.83640129 67.1847061 -60 61 C-58.39123724 56.98990609 -55.57200449 54.29675865 -52.55639648 51.31347656 C-51.72443756 50.47867012 -51.72443756 50.47867012 -50.87567139 49.6269989 C-49.04565874 47.79328872 -47.20855853 45.96686534 -45.37109375 44.140625 C-44.09802923 42.86875262 -42.82533419 41.59651033 -41.55299377 40.32391357 C-38.88875374 37.66123646 -36.22119011 35.00195033 -33.55102539 32.34521484 C-30.12021336 28.93143551 -26.69606439 25.51106686 -23.27413845 22.08838272 C-20.64857821 19.46309365 -18.0204257 16.84041311 -15.39137459 14.2186203 C-14.12722571 12.95766337 -12.8636902 11.69609121 -11.60076714 10.43390656 C-9.8410866 8.67638158 -8.07816094 6.92218182 -6.31420898 5.16894531 C-5.78795425 4.6422374 -5.26169952 4.11552948 -4.71949768 3.57286072 C-1.11447708 0 -1.11447708 0 0 0 Z " fill="#000000" transform="translate(256,28)"/>
</svg>
